<svg width="52" height="52" viewBox="0 0 52 52" fill="none" xmlns="http://www.w3.org/2000/svg">
<path d="M6.6608 32.2837C3.93854 23.9054 6.92075 14.7271 14.0477 9.54909C21.1747 4.37105 30.8253 4.37105 37.9523 9.54909C45.0792 14.7271 48.0615 23.9054 45.3392 32.2837C42.6169 40.6619 34.8094 46.3344 26 46.3344C17.1906 46.3344 9.38305 40.6619 6.6608 32.2837Z" fill="#021F61" stroke="#021F61" stroke-width="1.4"/>
<path fill-rule="evenodd" clip-rule="evenodd" d="M19.3333 22.6667C18.873 22.6667 18.4999 23.0398 18.4999 23.5001V31.8334C18.4999 32.2937 18.873 32.6667 19.3333 32.6667H32.6666C33.1268 32.6667 33.4999 32.2937 33.4999 31.8334V23.5001C33.4999 23.0398 33.1268 22.6667 32.6666 22.6667H19.3333ZM16.8333 23.5001C16.8333 22.1194 17.9525 21.0001 19.3333 21.0001H32.6666C34.0473 21.0001 35.1666 22.1194 35.1666 23.5001V31.8334C35.1666 33.2141 34.0473 34.3334 32.6666 34.3334H19.3333C17.9525 34.3334 16.8333 33.2141 16.8333 31.8334V23.5001Z" fill="white"/>
<path fill-rule="evenodd" clip-rule="evenodd" d="M22.5655 18.399C23.0343 17.9301 23.6702 17.6667 24.3333 17.6667H27.6666C28.3296 17.6667 28.9655 17.9301 29.4344 18.399C29.9032 18.8678 30.1666 19.5037 30.1666 20.1667V33.5001C30.1666 33.9603 29.7935 34.3334 29.3333 34.3334C28.873 34.3334 28.4999 33.9603 28.4999 33.5001V20.1667C28.4999 19.9457 28.4121 19.7338 28.2558 19.5775C28.0996 19.4212 27.8876 19.3334 27.6666 19.3334H24.3333C24.1122 19.3334 23.9003 19.4212 23.744 19.5775C23.5877 19.7338 23.4999 19.9457 23.4999 20.1667V33.5001C23.4999 33.9603 23.1268 34.3334 22.6666 34.3334C22.2063 34.3334 21.8333 33.9603 21.8333 33.5001V20.1667C21.8333 19.5037 22.0966 18.8678 22.5655 18.399Z" fill="white"/>
</svg>
