<svg width="37" height="37" viewBox="0 0 37 37" fill="none" xmlns="http://www.w3.org/2000/svg">
<path d="M19.4112 18.5L27.7012 10.21C27.865 10.0187 27.9506 9.77262 27.9409 9.52095C27.9312 9.26927 27.8269 9.03053 27.6488 8.85244C27.4707 8.67434 27.2319 8.57001 26.9802 8.56029C26.7286 8.55057 26.4825 8.63618 26.2912 8.8L18.0012 17.09L9.71119 8.79C9.52289 8.6017 9.2675 8.49591 9.00119 8.49591C8.73489 8.49591 8.4795 8.6017 8.29119 8.79C8.10289 8.97831 7.9971 9.2337 7.9971 9.5C7.9971 9.7663 8.10289 10.0217 8.29119 10.21L16.5912 18.5L8.29119 26.79C8.18651 26.8797 8.10149 26.99 8.04147 27.114C7.98145 27.2381 7.94772 27.3732 7.9424 27.5109C7.93708 27.6487 7.96028 27.786 8.01056 27.9143C8.06083 28.0427 8.13709 28.1592 8.23454 28.2567C8.332 28.3541 8.44855 28.4304 8.57687 28.4806C8.7052 28.5309 8.84253 28.5541 8.98025 28.5488C9.11797 28.5435 9.2531 28.5098 9.37716 28.4497C9.50123 28.3897 9.61155 28.3047 9.70119 28.2L18.0012 19.91L26.2912 28.2C26.4825 28.3638 26.7286 28.4494 26.9802 28.4397C27.2319 28.43 27.4707 28.3257 27.6488 28.1476C27.8269 27.9695 27.9312 27.7307 27.9409 27.4791C27.9506 27.2274 27.865 26.9813 27.7012 26.79L19.4112 18.5Z" fill="#021F61"/>
</svg>
