<svg width="48" height="47" viewBox="0 0 48 47" fill="none" xmlns="http://www.w3.org/2000/svg">
<path d="M42.7284 14.9532C43.8616 14.9532 44.9484 15.4034 45.7497 16.2047C46.551 17.006 47.0012 18.0928 47.0012 19.226V27.7717C47.0012 28.9049 46.551 29.9917 45.7497 30.7931C44.9484 31.5944 43.8616 32.0445 42.7284 32.0445H40.4595C39.9387 36.1749 37.9284 39.9732 34.806 42.7266C31.6836 45.4801 27.6637 46.9994 23.5006 46.9995V42.7266C26.9003 42.7266 30.1607 41.3761 32.5647 38.9722C34.9686 36.5682 36.3191 33.3078 36.3191 29.9081V17.0896C36.3191 13.6899 34.9686 10.4295 32.5647 8.02555C30.1607 5.62161 26.9003 4.27109 23.5006 4.27109C20.1009 4.27109 16.8405 5.62161 14.4366 8.02555C12.0326 10.4295 10.6821 13.6899 10.6821 17.0896V32.0445H4.27284C3.13961 32.0445 2.0528 31.5944 1.25149 30.7931C0.450173 29.9917 0 28.9049 0 27.7717V19.226C0 18.0928 0.450173 17.006 1.25149 16.2047C2.0528 15.4034 3.13961 14.9532 4.27284 14.9532H6.54171C7.06307 10.8233 9.07354 7.02552 12.1959 4.27253C15.3183 1.51955 19.3379 0.000549316 23.5006 0.000549316C27.6633 0.000549316 31.6829 1.51955 34.8053 4.27253C37.9277 7.02552 39.9382 10.8233 40.4595 14.9532H42.7284Z" fill="black"/>
</svg>
