<svg width="18" height="18" viewBox="0 0 18 18" fill="none" xmlns="http://www.w3.org/2000/svg">
<path d="M3.375 4.5C3.375 4.05245 3.55279 3.62322 3.86926 3.30676C4.18572 2.99029 4.61495 2.8125 5.0625 2.8125H14.0625C14.5101 2.8125 14.9393 2.99029 15.2557 3.30676C15.5722 3.62322 15.75 4.05245 15.75 4.5V10.125C15.75 10.5726 15.5722 11.0018 15.2557 11.3182C14.9393 11.6347 14.5101 11.8125 14.0625 11.8125H9.5625V7.3125C9.5625 6.56658 9.26618 5.85121 8.73874 5.32376C8.21129 4.79632 7.49592 4.5 6.75 4.5H3.9375C3.74288 4.5 3.555 4.52475 3.375 4.57088V4.5ZM16.3125 14.0625H9.5625V12.9375H16.3125C16.4617 12.9375 16.6048 12.9968 16.7102 13.1023C16.8157 13.2077 16.875 13.3508 16.875 13.5C16.875 13.6492 16.8157 13.7923 16.7102 13.8977C16.6048 14.0032 16.4617 14.0625 16.3125 14.0625ZM3.375 5.625C2.92745 5.625 2.49822 5.80279 2.18176 6.11926C1.86529 6.43572 1.6875 6.86495 1.6875 7.3125V14.0625C1.6875 14.5101 1.86529 14.9393 2.18176 15.2557C2.49822 15.5722 2.92745 15.75 3.375 15.75H6.75C7.19755 15.75 7.62678 15.5722 7.94324 15.2557C8.25971 14.9393 8.4375 14.5101 8.4375 14.0625V7.3125C8.4375 6.86495 8.25971 6.43572 7.94324 6.11926C7.62678 5.80279 7.19755 5.625 6.75 5.625H3.375ZM5.0625 14.0625C4.91332 14.0625 4.77024 14.0032 4.66475 13.8977C4.55926 13.7923 4.5 13.6492 4.5 13.5C4.5 13.3508 4.55926 13.2077 4.66475 13.1023C4.77024 12.9968 4.91332 12.9375 5.0625 12.9375C5.21168 12.9375 5.35476 12.9968 5.46025 13.1023C5.56574 13.2077 5.625 13.3508 5.625 13.5C5.625 13.6492 5.56574 13.7923 5.46025 13.8977C5.35476 14.0032 5.21168 14.0625 5.0625 14.0625Z" fill="#222222"/>
</svg>
