<svg width="52" height="52" viewBox="0 0 52 52" fill="none" xmlns="http://www.w3.org/2000/svg">
<path d="M13.6363 8.98278C21.0086 3.62649 30.9914 3.62649 38.3637 8.98278V8.98278C45.736 14.3391 48.8209 23.8333 46.0049 32.5V32.5C43.189 41.1667 35.1127 47.0344 26 47.0344V47.0344C16.8873 47.0344 8.81103 41.1667 5.99506 32.5V32.5C3.17909 23.8333 6.26396 14.3391 13.6363 8.98278V8.98278Z" fill="#021F61"/>
<path fill-rule="evenodd" clip-rule="evenodd" d="M19.7204 28.887C20.5018 28.1056 21.5616 27.6666 22.6667 27.6666H29.3333C30.4384 27.6666 31.4982 28.1056 32.2796 28.887C33.061 29.6684 33.5 30.7282 33.5 31.8333V33.5C33.5 33.9602 33.1269 34.3333 32.6667 34.3333C32.2064 34.3333 31.8333 33.9602 31.8333 33.5V31.8333C31.8333 31.1703 31.5699 30.5344 31.1011 30.0655C30.6323 29.5967 29.9964 29.3333 29.3333 29.3333H22.6667C22.0036 29.3333 21.3677 29.5967 20.8989 30.0655C20.4301 30.5344 20.1667 31.1703 20.1667 31.8333V33.5C20.1667 33.9602 19.7936 34.3333 19.3333 34.3333C18.8731 34.3333 18.5 33.9602 18.5 33.5V31.8333C18.5 30.7282 18.939 29.6684 19.7204 28.887Z" fill="white"/>
<path fill-rule="evenodd" clip-rule="evenodd" d="M25.9999 19.3333C24.6192 19.3333 23.4999 20.4526 23.4999 21.8333C23.4999 23.214 24.6192 24.3333 25.9999 24.3333C27.3806 24.3333 28.4999 23.214 28.4999 21.8333C28.4999 20.4526 27.3806 19.3333 25.9999 19.3333ZM21.8333 21.8333C21.8333 19.5321 23.6987 17.6666 25.9999 17.6666C28.3011 17.6666 30.1666 19.5321 30.1666 21.8333C30.1666 24.1345 28.3011 26 25.9999 26C23.6987 26 21.8333 24.1345 21.8333 21.8333Z" fill="white"/>
</svg>
