<svg width="52" height="52" viewBox="0 0 52 52" fill="none" xmlns="http://www.w3.org/2000/svg">
<path d="M14.0477 9.54909C21.1747 4.37105 30.8253 4.37105 37.9523 9.54909C45.0792 14.7271 48.0615 23.9054 45.3392 32.2837C42.6169 40.6619 34.8094 46.3344 26 46.3344C17.1906 46.3344 9.38305 40.6619 6.6608 32.2837C3.93854 23.9054 6.92075 14.7271 14.0477 9.54909Z" fill="white" stroke="#021F61" stroke-width="1.4"/>
<path fill-rule="evenodd" clip-rule="evenodd" d="M19.7204 28.8871C20.5018 28.1057 21.5616 27.6667 22.6667 27.6667H29.3333C30.4384 27.6667 31.4982 28.1057 32.2796 28.8871C33.061 29.6685 33.5 30.7283 33.5 31.8334V33.5001C33.5 33.9603 33.1269 34.3334 32.6667 34.3334C32.2064 34.3334 31.8333 33.9603 31.8333 33.5001V31.8334C31.8333 31.1704 31.5699 30.5345 31.1011 30.0656C30.6323 29.5968 29.9964 29.3334 29.3333 29.3334H22.6667C22.0036 29.3334 21.3677 29.5968 20.8989 30.0656C20.4301 30.5345 20.1667 31.1704 20.1667 31.8334V33.5001C20.1667 33.9603 19.7936 34.3334 19.3333 34.3334C18.8731 34.3334 18.5 33.9603 18.5 33.5001V31.8334C18.5 30.7283 18.939 29.6685 19.7204 28.8871Z" fill="#021F61"/>
<path fill-rule="evenodd" clip-rule="evenodd" d="M25.9999 19.3334C24.6192 19.3334 23.4999 20.4527 23.4999 21.8334C23.4999 23.2141 24.6192 24.3334 25.9999 24.3334C27.3806 24.3334 28.4999 23.2141 28.4999 21.8334C28.4999 20.4527 27.3806 19.3334 25.9999 19.3334ZM21.8333 21.8334C21.8333 19.5322 23.6987 17.6667 25.9999 17.6667C28.3011 17.6667 30.1666 19.5322 30.1666 21.8334C30.1666 24.1346 28.3011 26.0001 25.9999 26.0001C23.6987 26.0001 21.8333 24.1346 21.8333 21.8334Z" fill="#021F61"/>
</svg>
