<svg width="31" height="26" viewBox="0 0 31 26" fill="none" xmlns="http://www.w3.org/2000/svg">
<rect x="0.5" width="30" height="26" rx="1" fill="#F5F5F5"/>
<path d="M18.266 20C18.8443 19.9998 19.4047 19.7993 19.8517 19.4324C20.2988 19.0656 20.6049 18.5551 20.718 17.988C21.2077 17.9343 21.6604 17.7017 21.9893 17.3349C22.3181 16.968 22.5 16.4927 22.5 16V8C22.5 7.46957 22.2893 6.96086 21.9142 6.58579C21.5391 6.21071 21.0304 6 20.5 6H12.5C12.0018 6.00008 11.5216 6.18609 11.1534 6.5216C10.7851 6.85711 10.5553 7.31798 10.509 7.814C9.94232 7.92751 9.43247 8.23384 9.0662 8.68088C8.69992 9.12793 8.49984 9.68807 8.5 10.266V16.5C8.5 17.4283 8.86875 18.3185 9.52513 18.9749C10.1815 19.6313 11.0717 20 12 20H18.266ZM9.5 10.266C9.49963 9.9555 9.59562 9.65254 9.77474 9.39892C9.95385 9.14529 10.2073 8.9535 10.5 8.85V16C10.5 16.5304 10.7107 17.0391 11.0858 17.4142C11.4609 17.7893 11.9696 18 12.5 18H19.68C19.5766 18.2924 19.3851 18.5456 19.1319 18.7247C18.8787 18.9038 18.5762 19 18.266 19H12C11.337 19 10.7011 18.7366 10.2322 18.2678C9.76339 17.7989 9.5 17.163 9.5 16.5V10.266ZM15.016 9H19C19.1326 9 19.2598 9.05268 19.3536 9.14645C19.4473 9.24021 19.5 9.36739 19.5 9.5V13.484C19.5 13.6166 19.4473 13.7438 19.3536 13.8376C19.2598 13.9313 19.1326 13.984 19 13.984C18.8674 13.984 18.7402 13.9313 18.6464 13.8376C18.5527 13.7438 18.5 13.6166 18.5 13.484V10.707L14.354 14.854C14.2601 14.9479 14.1328 15.0006 14 15.0006C13.8672 15.0006 13.7399 14.9479 13.646 14.854C13.5521 14.7601 13.4994 14.6328 13.4994 14.5C13.4994 14.3672 13.5521 14.2399 13.646 14.146L17.793 10H15.016C14.8834 10 14.7562 9.94732 14.6624 9.85355C14.5687 9.75979 14.516 9.63261 14.516 9.5C14.516 9.36739 14.5687 9.24021 14.6624 9.14645C14.7562 9.05268 14.8834 9 15.016 9Z" fill="#021F61"/>
</svg>
