<svg width="42" height="42" viewBox="0 0 42 42" fill="none" xmlns="http://www.w3.org/2000/svg">
<rect width="42" height="42" rx="3" fill="#219653"/>
<path d="M15.7313 10.1917C15.3375 10.1954 14.8782 10.2076 14.5032 10.2831C14.2735 10.329 14.086 10.4002 13.9969 10.464C13.9407 10.5015 13.9219 10.5212 13.9125 10.5423L15.0188 13.3168C15.0188 13.3149 15.0235 13.3126 15.0235 13.3107C15.2625 12.9676 15.5672 12.6821 15.9891 12.6821H16.9735L15.7313 10.1917ZM26.2688 10.1917L25.0266 12.6821H26.011C26.4375 12.6821 26.7375 12.9737 26.9766 13.322L28.0875 10.5423C28.0782 10.5212 28.0594 10.5015 28.0032 10.464C27.9141 10.4002 27.7266 10.329 27.4969 10.2831C27.1219 10.2076 26.6625 10.1963 26.2688 10.1917ZM21 10.8034C19.5375 10.8034 18.0704 11.5702 18.0704 13.104H18.9141C18.9141 11.1624 23.086 11.1624 23.086 13.104H23.9297C23.9297 11.5702 22.4625 10.8034 21 10.8034ZM15.9891 13.5259C15.9891 13.5259 15.8813 13.5545 15.7172 13.7954C15.5485 14.0298 15.3563 14.4282 15.1735 14.9438C14.8079 15.9751 14.4563 17.4798 14.1563 19.2423C13.5661 22.7438 13.178 27.2907 13.1729 31.4157C13.2357 31.4579 13.3819 31.5282 13.5844 31.5891C13.9922 31.7157 14.6204 31.8329 15.3797 31.9267C16.8985 32.1095 18.9516 32.2032 21 32.2032C23.0485 32.2032 25.1016 32.1095 26.6204 31.9267C27.3797 31.8329 28.0079 31.7157 28.4157 31.5891C28.6172 31.5282 28.7625 31.4579 28.8282 31.4157C28.8235 27.4267 28.4344 22.8845 27.8438 19.3454C27.5438 17.5642 27.1922 16.036 26.8266 14.9813C26.6391 14.4563 26.4516 14.0485 26.2829 13.8001C26.1141 13.5549 26.0016 13.5259 26.011 13.5259H15.9891ZM21 14.5782C22.0829 14.5782 23.1657 14.7704 24.0563 15.1782C24.9516 15.586 25.6829 16.2376 25.9079 17.147L25.9125 17.1517L27.3797 23.5407H14.6204L16.0875 17.1517L16.0922 17.147C16.3172 16.2376 17.0485 15.586 17.9438 15.1782C18.8344 14.7704 19.9172 14.5782 21 14.5782ZM21 15.422C20.0204 15.422 19.0407 15.6048 18.2907 15.947C17.5454 16.2892 17.0579 16.7626 16.9079 17.3485L15.6797 22.697H26.3204L25.0922 17.3485C24.9422 16.7626 24.4547 16.2892 23.7094 15.947C22.9594 15.6048 21.9797 15.422 21 15.422ZM18 17.5782H24V18.422H19.9219V19.6688H19.0782V18.422H18V17.5782ZM14.7282 24.7876H15.5719C15.5719 26.4235 15.7875 27.6235 16.1532 28.3595C16.5235 29.0907 16.9641 29.3766 17.6579 29.3766H24.3422C25.036 29.3766 25.4766 29.0907 25.8469 28.3595C26.2125 27.6235 26.4282 26.4235 26.4282 24.7876H27.2719C27.2719 26.4938 27.0657 27.8016 26.5969 28.7345C26.1282 29.672 25.3172 30.2204 24.3422 30.2204H17.6579C16.6829 30.2204 15.8719 29.672 15.4032 28.7345C14.9344 27.8016 14.7282 26.4938 14.7282 24.7876Z" fill="white"/>
</svg>
