<svg width="18" height="19" viewBox="0 0 18 19" fill="none" xmlns="http://www.w3.org/2000/svg">
<path d="M9 15.4771C7.325 15.4771 5.90625 14.8958 4.74375 13.7333C3.58125 12.5708 3 11.1521 3 9.47705C3 7.80205 3.58125 6.3833 4.74375 5.2208C5.90625 4.0583 7.325 3.47705 9 3.47705C9.8625 3.47705 10.6875 3.6553 11.475 4.0118C12.2625 4.3678 12.9375 4.87705 13.5 5.53955V3.47705H15V8.72705H9.75V7.22705H12.9C12.5 6.52705 11.9532 5.97705 11.2597 5.57705C10.5657 5.17705 9.8125 4.97705 9 4.97705C7.75 4.97705 6.6875 5.41455 5.8125 6.28955C4.9375 7.16455 4.5 8.22705 4.5 9.47705C4.5 10.7271 4.9375 11.7896 5.8125 12.6646C6.6875 13.5396 7.75 13.9771 9 13.9771C9.9625 13.9771 10.8313 13.7021 11.6063 13.1521C12.3813 12.6021 12.925 11.8771 13.2375 10.9771H14.8125C14.4625 12.3021 13.75 13.3833 12.675 14.2208C11.6 15.0583 10.375 15.4771 9 15.4771Z" fill="#021F61"/>
</svg>
