<svg width="63" height="63" viewBox="0 0 63 63" fill="none" xmlns="http://www.w3.org/2000/svg">
<g clip-path="url(#clip0_478_99)">
<path d="M41.3241 27.2475L46.3562 24.8102C46.6319 24.6771 46.8715 24.4794 47.0544 24.2338C47.2374 23.9883 47.3584 23.7023 47.4071 23.4C47.4558 23.0977 47.4308 22.7881 47.3342 22.4975C47.2376 22.207 47.0723 21.944 46.8523 21.731C45.8601 20.7703 44.1669 21.1837 43.1826 22.1524C42.2769 23.0422 41.1626 23.6211 39.9696 24.2392L39.5679 24.4519C38.2371 25.1527 38.5284 26.9167 39.9617 27.3499C40.413 27.4871 40.8995 27.4531 41.3241 27.2475ZM30.4802 38.619V38.5087C30.4799 38.2636 30.535 38.0215 30.6415 37.8006C30.748 37.5798 30.903 37.3859 31.095 37.2334C31.287 37.0809 31.511 36.9738 31.7502 36.9201C31.9894 36.8664 32.2377 36.8675 32.4765 36.9233C32.7152 36.9791 32.9382 37.0882 33.1289 37.2423C33.3195 37.3965 33.4729 37.5918 33.5774 37.8135C33.6819 38.0353 33.7349 38.2779 33.7325 38.523C33.73 38.7682 33.6722 39.0096 33.5632 39.2293L32.697 40.9736C32.5784 41.2183 32.4185 41.4407 32.2245 41.6312L31.4646 42.3596C31.3343 42.5032 31.176 42.6185 30.9995 42.6984C30.8229 42.7784 30.6318 42.8213 30.438 42.8245C30.2442 42.8277 30.0518 42.7911 29.8727 42.717C29.6936 42.6428 29.5316 42.5328 29.3967 42.3936C29.2619 42.2544 29.157 42.089 29.0885 41.9077C29.0201 41.7263 28.9896 41.5329 28.9988 41.3393C29.0081 41.1457 29.057 40.956 29.1425 40.7821C29.228 40.6081 29.3482 40.4535 29.4958 40.3279L29.9368 39.9026C30.1089 39.7361 30.2457 39.5366 30.3391 39.3161C30.4324 39.0955 30.4804 38.8585 30.4802 38.619ZM22.3335 49.2187L24.2314 50.1362C24.4374 50.2365 24.6634 50.289 24.8925 50.2897C25.1216 50.2904 25.3479 50.2392 25.5545 50.1401C25.7611 50.041 25.9426 49.8964 26.0854 49.7173C26.2283 49.5381 26.3287 49.329 26.3794 49.1055C26.43 48.882 26.4294 48.65 26.3777 48.4268C26.326 48.2036 26.2245 47.9949 26.0807 47.8165C25.937 47.638 25.7548 47.4944 25.5478 47.3963C25.3407 47.2982 25.1141 47.2482 24.885 47.25H23.247C22.6525 47.2497 22.074 47.0578 21.5972 46.7027L20.5065 45.8915C20.3717 45.7902 20.217 45.7187 20.0525 45.6818C19.8879 45.6448 19.7175 45.6433 19.5523 45.6772C19.3871 45.7112 19.2311 45.7799 19.0945 45.8788C18.958 45.9776 18.844 46.1044 18.7601 46.2507C18.6763 46.397 18.6245 46.5595 18.6083 46.7273C18.592 46.8951 18.6116 47.0645 18.6658 47.2241C18.72 47.3838 18.8075 47.5301 18.9226 47.6534C19.0376 47.7766 19.1776 47.874 19.3331 47.939L22.3335 49.2187Z" fill="white"/>
<path d="M31.5 0C23.1457 0 15.1335 3.31874 9.22614 9.22614C3.31874 15.1335 0 23.1457 0 31.5C0 39.8543 3.31874 47.8665 9.22614 53.7739C15.1335 59.6813 23.1457 63 31.5 63C39.8543 63 47.8665 59.6813 53.7739 53.7739C59.6813 47.8665 63 39.8543 63 31.5C63 23.1457 59.6813 15.1335 53.7739 9.22614C47.8665 3.31874 39.8543 0 31.5 0ZM6.34725 42.7888L9.324 37.7173C9.62265 37.2082 10.0319 36.7727 10.5216 36.4431C11.0113 36.1134 11.5688 35.8981 12.1529 35.8131C12.737 35.728 13.3328 35.7754 13.8961 35.9516C14.4595 36.1279 14.976 36.4286 15.4074 36.8314L19.6363 40.7886C20.3638 41.4703 21.3256 41.846 22.3225 41.838C23.3194 41.8299 24.275 41.4386 24.9913 40.7452L25.1409 40.5996C25.5334 40.2195 25.8306 39.7522 26.0085 39.2356C26.1864 38.7191 26.2399 38.1679 26.1647 37.6267C25.8694 35.469 27.6216 33.5593 29.7872 33.2994C32.6537 32.9608 36.036 32.0237 36.5912 29.5312C36.9298 28.0114 36.1423 26.2631 35.1698 24.8063C34.3547 23.5778 35.1698 21.6562 36.6424 21.6562C37.1267 21.6562 37.5874 21.4397 37.8945 21.0656L39.4419 19.1992C40.2137 18.2661 41.3753 17.7502 42.5801 17.6124C44.7615 17.3604 48.1202 16.5217 48.8132 13.7812C49.1991 12.2417 48.0572 11.2849 46.9074 10.3162C45.9073 9.4815 44.8993 8.63888 44.8796 7.39856C50.11 10.2994 54.2545 14.8232 56.6874 20.287C59.1202 25.7508 59.7093 31.8578 58.3656 37.6858C58.2558 37.5971 58.1415 37.5143 58.023 37.4378L56.7788 36.6345C56.2115 36.2687 55.5598 36.0549 54.8862 36.0135C54.2125 35.9721 53.5395 36.1046 52.9318 36.3983L52.2664 36.7211C51.3557 37.1602 50.311 37.2321 49.3487 36.9219L45.3285 35.6265C44.9379 35.5009 44.53 35.4371 44.1197 35.4375H43.47C42.6508 35.4378 41.852 35.6936 41.1851 36.1693C40.5181 36.645 40.0161 37.3169 39.7491 38.0914L39.0718 40.0562C38.7833 40.89 38.2231 41.6027 37.4811 42.0801L34.3232 44.1197C33.7701 44.4764 33.3153 44.966 33.0003 45.5438C32.6853 46.1216 32.5201 46.7691 32.5198 47.4272V49.2188C32.5198 50.263 32.9347 51.2646 33.6731 52.003C34.4115 52.7414 35.413 53.1562 36.4573 53.1562H37.4692C38.2264 53.1567 38.9674 53.3754 39.6034 53.7863L42.6037 55.7156C42.9471 55.938 43.3231 56.1054 43.7181 56.2118C40.3954 57.8545 36.7756 58.8103 33.0751 59.0221C29.3746 59.2338 25.6694 58.6971 22.1811 57.444C18.6928 56.1909 15.493 54.2472 12.7731 51.7292C10.0531 49.2111 7.86899 46.1704 6.35119 42.7888H6.34725Z" fill="white"/>
</g>
<defs>
<clipPath id="clip0_478_99">
<rect width="63" height="63" fill="white"/>
</clipPath>
</defs>
</svg>
