<svg width="63" height="63" viewBox="0 0 63 63" fill="none" xmlns="http://www.w3.org/2000/svg">
<g clip-path="url(#clip0_478_560)">
<path d="M14.3876 5.22894C14.1552 4.92993 13.8618 4.6838 13.5269 4.5069C13.192 4.33 12.8234 4.22638 12.4454 4.20292C12.0673 4.17945 11.6887 4.23669 11.3345 4.37082C10.9803 4.50495 10.6587 4.71291 10.3911 4.98088L6.31971 9.05619C4.4179 10.9619 3.71702 13.6591 4.54784 16.0256C7.99606 25.8204 13.6052 34.7133 20.9593 42.0446C28.2907 49.3985 37.1835 55.0077 46.9783 58.4561C49.3448 59.2869 52.042 58.586 53.9477 56.6842L58.0191 52.6128C58.2871 52.3452 58.495 52.0236 58.6291 51.6694C58.7633 51.3152 58.8205 50.9366 58.7971 50.5585C58.7736 50.1805 58.67 49.8119 58.4931 49.477C58.3162 49.1421 58.07 48.8487 57.771 48.6163L48.6872 41.5524C48.3678 41.3046 47.9962 41.1326 47.6006 41.0494C47.205 40.9662 46.7957 40.9739 46.4035 41.072L37.7803 43.2258C36.6293 43.5135 35.4234 43.4982 34.2801 43.1815C33.1367 42.8648 32.0948 42.2574 31.2559 41.4185L21.5854 31.7441C20.7458 30.9055 20.1377 29.8638 19.8203 28.7205C19.5029 27.5771 19.487 26.371 19.7741 25.2196L21.9319 16.5965C22.03 16.2043 22.0377 15.795 21.9545 15.3994C21.8713 15.0037 21.6993 14.6322 21.4515 14.3128L14.3876 5.22894ZM7.41827 2.012C8.10732 1.32274 8.93511 0.787954 9.84668 0.443151C10.7583 0.0983472 11.7328 -0.0485819 12.7055 0.0121197C13.6782 0.0728213 14.6269 0.339765 15.4885 0.795224C16.3501 1.25068 17.105 1.88424 17.703 2.65382L24.7669 11.7337C26.0623 13.3993 26.5191 15.5688 26.0072 17.6163L23.8534 26.2394C23.742 26.6861 23.7481 27.1539 23.8709 27.5975C23.9937 28.0411 24.2291 28.4455 24.5543 28.7713L34.2287 38.4457C34.5549 38.7715 34.9599 39.0073 35.4043 39.1302C35.8486 39.253 36.3172 39.2586 36.7645 39.1466L45.3836 36.9928C46.3941 36.7401 47.4487 36.7205 48.4678 36.9354C49.4869 37.1502 50.4439 37.594 51.2663 38.2331L60.3461 45.2969C63.6103 47.8366 63.9096 52.6601 60.988 55.5778L56.9166 59.6491C54.0028 62.5629 49.648 63.8426 45.5884 62.4132C35.1981 58.7574 25.7642 52.809 17.9865 45.0095C10.1875 37.233 4.23917 27.8005 0.582773 17.4116C-0.842602 13.3559 0.437086 8.99713 3.35084 6.08338L7.42221 2.012H7.41827Z" fill="white"/>
</g>
<defs>
<clipPath id="clip0_478_560">
<rect width="63" height="63" fill="white"/>
</clipPath>
</defs>
</svg>
