<svg width="50" height="50" viewBox="0 0 50 50" fill="none" xmlns="http://www.w3.org/2000/svg">
<rect width="50" height="50" rx="3" fill="#1F3C88"/>
<path d="M40 25C40 32.2488 33.2838 38.125 25 38.125C23.5143 38.127 22.0349 37.9341 20.5994 37.5513C19.5044 38.1063 16.99 39.1713 12.76 39.865C12.385 39.925 12.1 39.535 12.2481 39.1863C12.9119 37.6187 13.5119 35.53 13.6919 33.625C11.395 31.3188 10 28.3 10 25C10 17.7513 16.7162 11.875 25 11.875C33.2838 11.875 40 17.7513 40 25ZM18.4375 19.375C18.1889 19.375 17.9504 19.4738 17.7746 19.6496C17.5988 19.8254 17.5 20.0639 17.5 20.3125C17.5 20.5611 17.5988 20.7996 17.7746 20.9754C17.9504 21.1512 18.1889 21.25 18.4375 21.25H31.5625C31.8111 21.25 32.0496 21.1512 32.2254 20.9754C32.4012 20.7996 32.5 20.5611 32.5 20.3125C32.5 20.0639 32.4012 19.8254 32.2254 19.6496C32.0496 19.4738 31.8111 19.375 31.5625 19.375H18.4375ZM18.4375 24.0625C18.1889 24.0625 17.9504 24.1613 17.7746 24.3371C17.5988 24.5129 17.5 24.7514 17.5 25C17.5 25.2486 17.5988 25.4871 17.7746 25.6629C17.9504 25.8387 18.1889 25.9375 18.4375 25.9375H31.5625C31.8111 25.9375 32.0496 25.8387 32.2254 25.6629C32.4012 25.4871 32.5 25.2486 32.5 25C32.5 24.7514 32.4012 24.5129 32.2254 24.3371C32.0496 24.1613 31.8111 24.0625 31.5625 24.0625H18.4375ZM18.4375 28.75C18.1889 28.75 17.9504 28.8488 17.7746 29.0246C17.5988 29.2004 17.5 29.4389 17.5 29.6875C17.5 29.9361 17.5988 30.1746 17.7746 30.3504C17.9504 30.5262 18.1889 30.625 18.4375 30.625H25.9375C26.1861 30.625 26.4246 30.5262 26.6004 30.3504C26.7762 30.1746 26.875 29.9361 26.875 29.6875C26.875 29.4389 26.7762 29.2004 26.6004 29.0246C26.4246 28.8488 26.1861 28.75 25.9375 28.75H18.4375Z" fill="white"/>
</svg>
