<svg width="50" height="50" viewBox="0 0 50 50" fill="none" xmlns="http://www.w3.org/2000/svg">
<rect width="50" height="50" rx="3" fill="#1F3C88"/>
<path fill-rule="evenodd" clip-rule="evenodd" d="M29.6591 21.0683C29.6591 22.3702 29.1419 23.6189 28.2212 24.5395C27.3006 25.4602 26.0519 25.9774 24.75 25.9774C23.448 25.9774 22.1994 25.4602 21.2787 24.5395C20.3581 23.6189 19.8409 22.3702 19.8409 21.0683C19.8409 19.7663 20.3581 18.5177 21.2787 17.597C22.1994 16.6764 23.448 16.1592 24.75 16.1592C26.0519 16.1592 27.3006 16.6764 28.2212 17.597C29.1419 18.5177 29.6591 19.7663 29.6591 21.0683ZM27.2045 21.0683C27.2045 21.7193 26.9459 22.3436 26.4856 22.8039C26.0253 23.2642 25.401 23.5228 24.75 23.5228C24.099 23.5228 23.4747 23.2642 23.0143 22.8039C22.554 22.3436 22.2954 21.7193 22.2954 21.0683C22.2954 20.4173 22.554 19.793 23.0143 19.3326C23.4747 18.8723 24.099 18.6137 24.75 18.6137C25.401 18.6137 26.0253 18.8723 26.4856 19.3326C26.9459 19.793 27.2045 20.4173 27.2045 21.0683Z" fill="white"/>
<path fill-rule="evenodd" clip-rule="evenodd" d="M24.75 11.25C17.2943 11.25 11.25 17.2943 11.25 24.75C11.25 32.2057 17.2943 38.25 24.75 38.25C32.2057 38.25 38.25 32.2057 38.25 24.75C38.25 17.2943 32.2057 11.25 24.75 11.25ZM13.7045 24.75C13.7045 27.315 14.5796 29.6763 16.0462 31.5515C17.0761 30.199 18.4049 29.1028 19.9286 28.3487C21.4523 27.5947 23.1297 27.2031 24.8298 27.2045C26.5079 27.203 28.1642 27.5844 29.6725 28.3199C31.1808 29.0553 32.5014 30.1254 33.5336 31.4485C34.597 30.0538 35.3129 28.4259 35.6223 26.6996C35.9316 24.9733 35.8254 23.1982 35.3125 21.521C34.7996 19.8439 33.8947 18.313 32.6726 17.055C31.4506 15.7971 29.9466 14.8482 28.285 14.2869C26.6234 13.7256 24.8521 13.568 23.1176 13.8272C21.383 14.0864 19.7351 14.755 18.3102 15.7775C16.8853 16.8 15.7244 18.1471 14.9235 19.7074C14.1226 21.2676 13.7048 22.9962 13.7045 24.75ZM24.75 35.7955C22.2144 35.7993 19.7553 34.927 17.7889 33.3262C18.5804 32.1931 19.6339 31.2679 20.8598 30.6295C22.0856 29.991 23.4476 29.6581 24.8298 29.6591C26.1947 29.658 27.5402 29.9826 28.7545 30.6058C29.9688 31.2291 31.0169 32.1331 31.8117 33.2427C29.83 34.8955 27.3304 35.7991 24.75 35.7955Z" fill="white"/>
<rect x="30.5" y="10" width="9.5" height="9.50781" rx="4.75" fill="#EB5757"/>
<path d="M38 14.5781L35.8594 15.0156L37.3438 16.9141L36.4844 17.5078L35.2656 15.4375L34.0312 17.5078L33.1719 16.9141L34.6562 15.0156L32.5 14.5781L32.8516 13.6016L34.8984 14.375L34.7188 12H35.7969L35.6172 14.375L37.6719 13.6016L38 14.5781Z" fill="white"/>
</svg>
