<svg width="51" height="50" viewBox="0 0 51 50" fill="none" xmlns="http://www.w3.org/2000/svg">
<rect x="0.5" width="50" height="50" rx="3" fill="#1F3C88"/>
<path d="M32.6575 26.275L28 30H21.75V28.75H26.8312C26.9443 28.7499 27.0552 28.7192 27.1522 28.6611C27.2492 28.603 27.3286 28.5197 27.3819 28.42C27.4353 28.3203 27.4606 28.2081 27.4552 28.0951C27.4498 27.9822 27.4139 27.8729 27.3512 27.7787L26.2413 26.1137C26.0135 25.771 25.7046 25.4899 25.3419 25.2956C24.9791 25.1013 24.574 24.9997 24.1625 25H14.25C13.9185 25 13.6005 25.1317 13.3661 25.3661C13.1317 25.6005 13 25.9185 13 26.25V33.75C13 34.413 13.2634 35.0489 13.7322 35.5178C14.2011 35.9866 14.837 36.25 15.5 36.25H27.5487C28.0833 36.2501 28.6116 36.136 29.0984 35.9152C29.5852 35.6945 30.0192 35.3722 30.3713 34.97L38 26.25L36.185 25.645C35.5912 25.4471 34.9573 25.401 34.3411 25.5111C33.7249 25.6211 33.1461 25.8838 32.6575 26.275ZM34.5725 19.2375C35.1362 18.6562 35.485 17.8525 35.485 16.965C35.485 16.0775 35.1362 15.2738 34.5725 14.6925C34.2874 14.395 33.9451 14.1581 33.5662 13.9962C33.1873 13.8342 32.7796 13.7505 32.3675 13.75C32.3675 13.75 30.8125 13.7462 29.25 15.3575C27.6875 13.7462 26.1325 13.75 26.1325 13.75C25.7205 13.7505 25.3129 13.8342 24.9341 13.9959C24.5552 14.1576 24.2128 14.3941 23.9275 14.6913C23.3637 15.2738 23.015 16.0763 23.015 16.9638C23.015 17.8513 23.3637 18.6562 23.9275 19.2362L29.25 25L34.5725 19.2375Z" fill="white"/>
</svg>
