<svg width="51" height="50" viewBox="0 0 51 50" fill="none" xmlns="http://www.w3.org/2000/svg">
<rect x="0.5" width="50" height="50" rx="3" fill="#1F3C88"/>
<g clip-path="url(#clip0_1755_22954)">
<path d="M34.7578 30.7422C34.0547 30.0391 33.2539 29.8242 32.3555 30.0977L30.4805 28.2227C32.1602 26.1523 33 23.8281 33 21.25C33 18.125 31.9062 15.4688 29.7188 13.2812C27.5312 11.0938 24.875 10 21.75 10C18.625 10 15.9688 11.0938 13.7812 13.2812C11.5938 15.4688 10.5 18.125 10.5 21.25C10.5 24.375 11.5938 27.0312 13.7812 29.2188C15.9688 31.4062 18.625 32.5 21.75 32.5C24.4844 32.5 26.8086 31.6602 28.7227 29.9805L30.5977 31.8555C30.3633 32.793 30.5781 33.5938 31.2422 34.2578L36.2227 39.2383C36.7305 39.7461 37.3164 40 37.9805 40C38.6836 40 39.2695 39.7461 39.7383 39.2383C40.2461 38.7305 40.5 38.1445 40.5 37.4805C40.5 36.8164 40.2461 36.2305 39.7383 35.7227L34.7578 30.7422ZM21.75 29.9805C19.3281 29.9805 17.2676 29.1309 15.5684 27.4316C13.8691 25.7324 13.0195 23.6719 13.0195 21.25C13.0195 18.8281 13.8691 16.7676 15.5684 15.0684C17.2676 13.3691 19.3281 12.5195 21.75 12.5195C24.1719 12.5195 26.2324 13.3691 27.9316 15.0684C29.6309 16.7676 30.4805 18.8281 30.4805 21.25C30.4805 23.6719 29.6309 25.7324 27.9316 27.4316C26.2324 29.1309 24.1719 29.9805 21.75 29.9805Z" fill="white"/>
</g>
<defs>
<clipPath id="clip0_1755_22954">
<rect width="30" height="30" fill="white" transform="translate(10.5 10)"/>
</clipPath>
</defs>
</svg>
