<svg width="19" height="20" viewBox="0 0 19 20" fill="none" xmlns="http://www.w3.org/2000/svg">
<path d="M4.75001 3.3501C4.24609 3.3501 3.76282 3.55028 3.4065 3.90659C3.05018 4.26291 2.85001 4.74619 2.85001 5.2501V7.1501C2.85001 7.65401 3.05018 8.13728 3.4065 8.4936C3.76282 8.84992 4.24609 9.0501 4.75001 9.0501H6.65001C7.15392 9.0501 7.63719 8.84992 7.99351 8.4936C8.34983 8.13728 8.55001 7.65401 8.55001 7.1501V5.2501C8.55001 4.74619 8.34983 4.26291 7.99351 3.90659C7.63719 3.55028 7.15392 3.3501 6.65001 3.3501H4.75001ZM4.75001 10.9501C4.24609 10.9501 3.76282 11.1503 3.4065 11.5066C3.05018 11.8629 2.85001 12.3462 2.85001 12.8501V14.7501C2.85001 15.254 3.05018 15.7373 3.4065 16.0936C3.76282 16.4499 4.24609 16.6501 4.75001 16.6501H6.65001C7.15392 16.6501 7.63719 16.4499 7.99351 16.0936C8.34983 15.7373 8.55001 15.254 8.55001 14.7501V12.8501C8.55001 12.3462 8.34983 11.8629 7.99351 11.5066C7.63719 11.1503 7.15392 10.9501 6.65001 10.9501H4.75001ZM10.45 5.2501C10.45 4.74619 10.6502 4.26291 11.0065 3.90659C11.3628 3.55028 11.8461 3.3501 12.35 3.3501H14.25C14.7539 3.3501 15.2372 3.55028 15.5935 3.90659C15.9498 4.26291 16.15 4.74619 16.15 5.2501V7.1501C16.15 7.65401 15.9498 8.13728 15.5935 8.4936C15.2372 8.84992 14.7539 9.0501 14.25 9.0501H12.35C11.8461 9.0501 11.3628 8.84992 11.0065 8.4936C10.6502 8.13728 10.45 7.65401 10.45 7.1501V5.2501ZM10.45 12.8501C10.45 12.3462 10.6502 11.8629 11.0065 11.5066C11.3628 11.1503 11.8461 10.9501 12.35 10.9501H14.25C14.7539 10.9501 15.2372 11.1503 15.5935 11.5066C15.9498 11.8629 16.15 12.3462 16.15 12.8501V14.7501C16.15 15.254 15.9498 15.7373 15.5935 16.0936C15.2372 16.4499 14.7539 16.6501 14.25 16.6501H12.35C11.8461 16.6501 11.3628 16.4499 11.0065 16.0936C10.6502 15.7373 10.45 15.254 10.45 14.7501V12.8501Z" fill="#222222"/>
</svg>
