<svg width="51" height="50" viewBox="0 0 51 50" fill="none" xmlns="http://www.w3.org/2000/svg">
<rect x="0.5" width="50" height="50" rx="3" fill="#1F3C88"/>
<g clip-path="url(#clip0_1755_22937)">
<path d="M39.25 15H15.0833C14.393 15 13.8333 15.5596 13.8333 16.25V16.6667H11.75C11.0596 16.6667 10.5 17.2263 10.5 17.9167V32.0833C10.5 33.6942 11.8058 35 13.4167 35H38C39.3807 35 40.5 33.8807 40.5 32.5V16.25C40.5 15.5596 39.9404 15 39.25 15ZM13.4167 32.5C13.3062 32.5 13.2002 32.4561 13.122 32.378C13.0439 32.2998 13 32.1938 13 32.0833V19.1667H13.8333V32.0833C13.8333 32.1938 13.7894 32.2998 13.7113 32.378C13.6332 32.4561 13.5272 32.5 13.4167 32.5ZM25.7083 31.6667H17.7917C17.4465 31.6667 17.1667 31.3868 17.1667 31.0417V30.625C17.1667 30.2798 17.4465 30 17.7917 30H25.7083C26.0535 30 26.3333 30.2798 26.3333 30.625V31.0417C26.3333 31.3868 26.0535 31.6667 25.7083 31.6667ZM36.5417 31.6667H28.625C28.2798 31.6667 28 31.3868 28 31.0417V30.625C28 30.2798 28.2798 30 28.625 30H36.5417C36.8868 30 37.1667 30.2798 37.1667 30.625V31.0417C37.1667 31.3868 36.8868 31.6667 36.5417 31.6667ZM25.7083 26.6667H17.7917C17.4465 26.6667 17.1667 26.3868 17.1667 26.0417V25.625C17.1667 25.2798 17.4465 25 17.7917 25H25.7083C26.0535 25 26.3333 25.2798 26.3333 25.625V26.0417C26.3333 26.3868 26.0535 26.6667 25.7083 26.6667ZM36.5417 26.6667H28.625C28.2798 26.6667 28 26.3868 28 26.0417V25.625C28 25.2798 28.2798 25 28.625 25H36.5417C36.8868 25 37.1667 25.2798 37.1667 25.625V26.0417C37.1667 26.3868 36.8868 26.6667 36.5417 26.6667ZM36.5417 21.6667H17.7917C17.4465 21.6667 17.1667 21.3868 17.1667 21.0417V18.9583C17.1667 18.6132 17.4465 18.3333 17.7917 18.3333H36.5417C36.8868 18.3333 37.1667 18.6132 37.1667 18.9583V21.0417C37.1667 21.3868 36.8868 21.6667 36.5417 21.6667Z" fill="white"/>
</g>
<defs>
<clipPath id="clip0_1755_22937">
<rect width="30" height="30" fill="white" transform="translate(10.5 10)"/>
</clipPath>
</defs>
</svg>
