<svg width="14" height="14" viewBox="0 0 14 14" fill="none" xmlns="http://www.w3.org/2000/svg">
<path d="M8.6431 0.297174C8.67186 0.237135 8.71309 0.182936 8.76445 0.137673C8.8158 0.0924099 8.87627 0.056969 8.9424 0.0333745C9.00853 0.00977991 9.07903 -0.00150601 9.14987 0.000161094C9.2207 0.00182819 9.29049 0.0164157 9.35525 0.0430906C9.48041 0.0951076 11.4895 0.982397 12.8372 3.07408C13.5181 4.13443 13.8051 5.21978 13.9227 6.04805C13.9899 6.52317 14.0133 7.00272 13.9928 7.48152V7.50753V7.50353C13.9928 7.63618 13.936 7.7634 13.8348 7.85719C13.7336 7.95099 13.5964 8.00369 13.4533 8.00369C13.3102 8.00369 13.173 7.95099 13.0718 7.85719C12.9707 7.7634 12.9138 7.63618 12.9138 7.50353V7.45351C12.93 7.1104 13.0109 5.29681 11.9103 3.58725C11.2485 2.56906 10.3256 1.71825 9.22361 1.11044C9.0391 1.01041 8.9258 0.96039 8.91717 0.957389C8.85241 0.930728 8.79394 0.892501 8.74512 0.844891C8.6963 0.797281 8.65807 0.741221 8.63262 0.679912C8.60717 0.618604 8.595 0.553247 8.59679 0.487576C8.59859 0.421905 8.61433 0.357206 8.6431 0.297174ZM8.69921 2.71096C8.78308 2.60354 8.90953 2.5314 9.05076 2.51039C9.19199 2.48938 9.33644 2.52122 9.45236 2.59893C9.44912 2.59692 9.707 2.74697 10.0134 3.00906C10.3231 3.27114 10.704 3.66227 11.0083 4.18644C11.3397 4.76126 11.5357 5.39476 11.5834 6.04505C11.5877 6.10507 11.5888 6.15208 11.5899 6.1891V6.25212C11.5899 6.38477 11.533 6.51199 11.4319 6.60579C11.3307 6.69959 11.1935 6.75228 11.0504 6.75228C10.9073 6.75228 10.7701 6.69959 10.6689 6.60579C10.5677 6.51199 10.5109 6.38477 10.5109 6.25212V6.24912C10.4991 5.68403 10.3389 5.13011 10.0443 4.63529C9.74971 4.14047 9.32951 3.71963 8.82006 3.40919C8.70419 3.33143 8.62637 3.2142 8.60371 3.08327C8.58104 2.95234 8.6154 2.81842 8.69921 2.71096ZM0.544063 9.71025C-0.00641596 8.79258 -0.145742 7.71108 0.156138 6.69904C0.458019 5.68699 1.17691 4.82552 2.15774 4.30044C3.13858 3.77535 4.30274 3.62875 5.39912 3.89225C6.4955 4.15574 7.43621 4.80822 8.01835 5.70894L8.90314 7.1294L10.9597 8.51686C11.0323 8.56588 11.0906 8.63094 11.1292 8.70613C11.1679 8.78132 11.1856 8.86426 11.1809 8.94743C11.1762 9.03059 11.1491 9.11135 11.1022 9.18237C11.0553 9.2534 10.99 9.31243 10.9123 9.35413L8.18236 10.8146L8.18668 10.8176L5.23235 12.3981V12.3951L2.50246 13.8556C2.42463 13.8974 2.33674 13.9206 2.2468 13.9229C2.15687 13.9252 2.06774 13.9066 1.98752 13.8688C1.90731 13.831 1.83856 13.7753 1.78754 13.7066C1.73651 13.6379 1.70482 13.5584 1.69537 13.4755L1.42885 11.1317L0.544063 9.71025ZM8.86645 11.6089L5.63159 13.3394C5.91322 13.6675 6.31253 13.891 6.7569 13.9693C7.20126 14.0475 7.66115 13.9752 8.05291 13.7657C8.44466 13.5561 8.74226 13.2231 8.89157 12.8273C9.04087 12.4315 9.03196 11.9991 8.86645 11.6089Z" fill="#EB5757"/>
</svg>
