<svg width="16" height="12" viewBox="0 0 16 12" fill="none" xmlns="http://www.w3.org/2000/svg">
<path d="M0 2C0 1.46957 0.210714 0.960859 0.585786 0.585786C0.960859 0.210714 1.46957 0 2 0H14C14.5304 0 15.0391 0.210714 15.4142 0.585786C15.7893 0.960859 16 1.46957 16 2V3H0V2ZM0 5V10C0 10.5304 0.210714 11.0391 0.585786 11.4142C0.960859 11.7893 1.46957 12 2 12H14C14.5304 12 15.0391 11.7893 15.4142 11.4142C15.7893 11.0391 16 10.5304 16 10V5H0ZM3 7H4C4.26522 7 4.51957 7.10536 4.70711 7.29289C4.89464 7.48043 5 7.73478 5 8V9C5 9.26522 4.89464 9.51957 4.70711 9.70711C4.51957 9.89464 4.26522 10 4 10H3C2.73478 10 2.48043 9.89464 2.29289 9.70711C2.10536 9.51957 2 9.26522 2 9V8C2 7.73478 2.10536 7.48043 2.29289 7.29289C2.48043 7.10536 2.73478 7 3 7Z" fill="#222222"/>
</svg>
