<svg width="16" height="16" viewBox="0 0 16 16" fill="none" xmlns="http://www.w3.org/2000/svg">
<path d="M5.65599 6.125H7.53099V8H5.65599V6.125ZM8.46799 6.125H10.343V8H8.46899L8.46799 6.125ZM11.281 6.125H13.156V8H11.281V6.125ZM2.84399 11.75H4.71899V13.625H2.84399V11.75ZM5.65699 11.75H7.53099V13.625H5.65599L5.65699 11.75ZM8.46899 11.75H10.344V13.625H8.46899V11.75ZM5.65599 8.938H7.53099V10.813H5.65599V8.938ZM8.46799 8.938H10.343V10.813H8.46899L8.46799 8.938ZM11.281 8.938H13.156V10.813H11.281V8.938ZM2.84399 8.938H4.71899V10.813H2.84399V8.938ZM13.156 0.5V1.438H11.281V0.5H4.71899V1.437H2.84399V0.5H0.968994V15.5H15.031V0.5H13.156ZM14.098 14.563H1.90599V4.25H14.098V14.563Z" fill="#707070"/>
</svg>
