<svg width="18" height="18" viewBox="0 0 18 18" fill="none" xmlns="http://www.w3.org/2000/svg">
<path d="M12 9.75C11.9542 9.74915 11.9095 9.76447 11.8738 9.79327C11.8382 9.82207 11.8138 9.86251 11.805 9.9075L11.6625 10.8975C11.4375 10.995 11.22 11.115 11.025 11.25L10.095 10.875C10.0125 10.875 9.915 10.875 9.8625 10.9725L9.1125 12.27C9.0675 12.3525 9.0825 12.45 9.1575 12.51L9.9525 13.125C9.92258 13.3741 9.92258 13.6259 9.9525 13.875L9.1575 14.49C9.1238 14.5189 9.10097 14.5584 9.09278 14.6021C9.0846 14.6457 9.09156 14.6908 9.1125 14.73L9.8625 16.0275C9.9075 16.125 10.005 16.125 10.095 16.125L11.025 15.75C11.22 15.885 11.43 16.0125 11.6625 16.1025L11.805 17.0925C11.82 17.1825 11.895 17.25 12 17.25H13.5C13.5825 17.25 13.665 17.1825 13.68 17.0925L13.8225 16.1025C14.0475 16.005 14.25 15.885 14.4525 15.75L15.375 16.125C15.4725 16.125 15.57 16.125 15.6225 16.0275L16.3725 14.73C16.3934 14.6908 16.4004 14.6457 16.3922 14.6021C16.384 14.5584 16.3612 14.5189 16.3275 14.49L15.525 13.875C15.54 13.7475 15.555 13.6275 15.555 13.5C15.555 13.3725 15.5475 13.2525 15.525 13.125L16.32 12.51C16.3537 12.4811 16.3765 12.4416 16.3847 12.3979C16.3929 12.3543 16.3859 12.3092 16.365 12.27L15.615 10.9725C15.57 10.875 15.4725 10.875 15.375 10.875L14.4525 11.25C14.25 11.115 14.0475 10.9875 13.815 10.8975L13.6725 9.9075C13.6678 9.86478 13.6477 9.82524 13.6159 9.79625C13.5842 9.76727 13.543 9.75083 13.5 9.75H12ZM12.75 12.375C13.3725 12.375 13.875 12.8775 13.875 13.5C13.875 14.1225 13.3725 14.625 12.75 14.625C12.12 14.625 11.625 14.1225 11.625 13.5C11.625 12.8775 12.1275 12.375 12.75 12.375ZM12 8.31V2.25H1.5V15.75H6V13.125H7.5225C7.695 10.65 9.5775 8.655 12 8.31ZM4.5 14.25H3V12.75H4.5V14.25ZM4.5 11.25H3V9.75H4.5V11.25ZM4.5 8.25H3V6.75H4.5V8.25ZM4.5 5.25H3V3.75H4.5V5.25ZM9 3.75H10.5V5.25H9V3.75ZM9 6.75H10.5V8.25H9V6.75ZM7.5 11.25H6V9.75H7.5V11.25ZM7.5 8.25H6V6.75H7.5V8.25ZM6 5.25V3.75H7.5V5.25H6Z" fill="black"/>
</svg>
