<svg width="30" height="26" viewBox="0 0 30 26" fill="none" xmlns="http://www.w3.org/2000/svg">
<rect width="30" height="26" rx="1" fill="#F5F5F5"/>
<path d="M17.9025 8.36153L15 11.2642C14.0325 10.2971 13.0648 9.32899 12.0971 8.36153C10.9778 7.24217 9.24269 8.97788 10.3611 10.0976C11.3289 11.0644 12.297 12.0326 13.2636 13.0001C12.2965 13.968 11.329 14.9355 10.3611 15.9026C9.24269 17.0217 10.9779 18.7569 12.0971 17.6387C13.0646 16.6709 14.0324 15.703 14.9998 14.7358L17.9024 17.6387C19.0217 18.7577 20.7573 17.0218 19.6384 15.9026C18.6706 14.9349 17.7032 13.9674 16.7351 12.9998C17.703 12.032 18.6705 11.0642 19.6384 10.0966C20.7574 8.97788 19.0219 7.24217 17.9024 8.36216" fill="#EB5757"/>
</svg>
