<svg width="30" height="26" viewBox="0 0 30 26" fill="none" xmlns="http://www.w3.org/2000/svg">
<rect width="30" height="26" rx="1" fill="#F5F5F5"/>
<path d="M13.3334 7.16667H16.6667C16.6667 6.72464 16.4912 6.30072 16.1786 5.98816C15.866 5.67559 15.4421 5.5 15.0001 5.5C14.5581 5.5 14.1341 5.67559 13.8216 5.98816C13.509 6.30072 13.3334 6.72464 13.3334 7.16667V7.16667ZM12.0834 7.16667C12.0834 6.78364 12.1589 6.40437 12.3054 6.05051C12.452 5.69664 12.6668 5.37511 12.9377 5.10427C13.2085 4.83343 13.5301 4.61859 13.8839 4.47202C14.2378 4.32544 14.6171 4.25 15.0001 4.25C15.3831 4.25 15.7624 4.32544 16.1162 4.47202C16.4701 4.61859 16.7916 4.83343 17.0625 5.10427C17.3333 5.37511 17.5482 5.69664 17.6947 6.05051C17.8413 6.40437 17.9167 6.78364 17.9167 7.16667H22.7084C22.8742 7.16667 23.0331 7.23251 23.1504 7.34972C23.2676 7.46694 23.3334 7.62591 23.3334 7.79167C23.3334 7.95743 23.2676 8.1164 23.1504 8.23361C23.0331 8.35082 22.8742 8.41667 22.7084 8.41667H21.6084L20.6334 18.5092C20.5586 19.2825 20.1984 20.0002 19.6231 20.5224C19.0478 21.0445 18.2987 21.3336 17.5217 21.3333H12.4784C11.7016 21.3334 10.9527 21.0442 10.3775 20.5221C9.80241 19.9999 9.44236 19.2823 9.36758 18.5092L8.39175 8.41667H7.29175C7.12599 8.41667 6.96702 8.35082 6.84981 8.23361C6.7326 8.1164 6.66675 7.95743 6.66675 7.79167C6.66675 7.62591 6.7326 7.46694 6.84981 7.34972C6.96702 7.23251 7.12599 7.16667 7.29175 7.16667H12.0834ZM13.7501 11.125C13.7501 10.9592 13.6842 10.8003 13.567 10.6831C13.4498 10.5658 13.2908 10.5 13.1251 10.5C12.9593 10.5 12.8004 10.5658 12.6831 10.6831C12.5659 10.8003 12.5001 10.9592 12.5001 11.125V17.375C12.5001 17.5408 12.5659 17.6997 12.6831 17.8169C12.8004 17.9342 12.9593 18 13.1251 18C13.2908 18 13.4498 17.9342 13.567 17.8169C13.6842 17.6997 13.7501 17.5408 13.7501 17.375V11.125ZM16.8751 10.5C16.7093 10.5 16.5503 10.5658 16.4331 10.6831C16.3159 10.8003 16.2501 10.9592 16.2501 11.125V17.375C16.2501 17.5408 16.3159 17.6997 16.4331 17.8169C16.5503 17.9342 16.7093 18 16.8751 18C17.0408 18 17.1998 17.9342 17.317 17.8169C17.4342 17.6997 17.5001 17.5408 17.5001 17.375V11.125C17.5001 10.9592 17.4342 10.8003 17.317 10.6831C17.1998 10.5658 17.0408 10.5 16.8751 10.5Z" fill="#EB5757"/>
</svg>
