<svg width="40" height="40" viewBox="0 0 40 40" fill="none" xmlns="http://www.w3.org/2000/svg">
<rect width="40" height="40" rx="20" fill="#E6E6E6"/>
<path d="M27.0466 14.6243H25.376V12.9536C25.376 12.507 25.0121 12.1431 24.5654 12.1431H24.5406C24.0857 12.1431 23.7218 12.507 23.7218 12.9536V14.6243H22.0594C21.6128 14.6243 21.2489 14.9882 21.2406 15.4348V15.4596C21.2406 15.9145 21.6045 16.2784 22.0594 16.2784H23.7218V17.9408C23.7218 18.3874 24.0857 18.7596 24.5406 18.7513H24.5654C25.0121 18.7513 25.376 18.3874 25.376 17.9408V16.2784H27.0466C27.4933 16.2784 27.8572 15.9145 27.8572 15.4679V15.4348C27.8572 14.9882 27.4933 14.6243 27.0466 14.6243ZM22.8948 17.9408V17.1055H22.0594C21.6211 17.1055 21.2075 16.9318 20.8933 16.6258C20.5872 16.3115 20.4136 15.898 20.4136 15.4348C20.4136 15.1371 20.4963 14.8641 20.6369 14.6243H13.797C12.8872 14.6243 12.1429 15.3686 12.1429 16.2784V26.2032C12.1429 27.113 12.8872 27.8574 13.797 27.8574H23.7218C24.6316 27.8574 25.376 27.113 25.376 26.2032V19.3551C25.1278 19.4957 24.8466 19.5867 24.5324 19.5867C24.098 19.5823 23.6827 19.4073 23.3763 19.0993C23.0699 18.7914 22.8969 18.3752 22.8948 17.9408ZM22.8617 26.2032H14.6241C14.5473 26.2032 14.472 26.1818 14.4067 26.1415C14.3414 26.1011 14.2886 26.0433 14.2542 25.9746C14.2199 25.9059 14.2053 25.829 14.2122 25.7525C14.2191 25.6761 14.2472 25.603 14.2933 25.5416L15.9309 23.3664C16.1045 23.1348 16.4436 23.1513 16.609 23.3829L17.9324 25.3761L20.091 22.498C20.2564 22.2829 20.579 22.2746 20.7444 22.4897L23.1842 25.5333C23.3993 25.8062 23.209 26.2032 22.8617 26.2032Z" fill="#222222"/>
</svg>
