<svg width="118" height="42" viewBox="0 0 118 42" fill="none" xmlns="http://www.w3.org/2000/svg">
<rect width="118" height="42" rx="3" fill="white"/>
<path d="M48.2284 15.5065L49.9934 17.2707M49.3634 13.9524L44.5909 18.7249C44.3443 18.9711 44.1761 19.2848 44.1076 19.6265L43.6667 21.8332L45.8734 21.3915C46.2151 21.3232 46.5284 21.1557 46.7751 20.909L51.5476 16.1365C51.691 15.9931 51.8048 15.8229 51.8824 15.6355C51.96 15.4481 51.9999 15.2473 51.9999 15.0444C51.9999 14.8416 51.96 14.6408 51.8824 14.4534C51.8048 14.266 51.691 14.0958 51.5476 13.9524C51.4042 13.8089 51.2339 13.6952 51.0465 13.6176C50.8591 13.5399 50.6583 13.5 50.4555 13.5C50.2527 13.5 50.0518 13.5399 49.8645 13.6176C49.6771 13.6952 49.5068 13.8089 49.3634 13.9524V13.9524Z" stroke="#021F61" stroke-width="1.5" stroke-linecap="round" stroke-linejoin="round"/>
<path d="M50.3334 23.4998V25.9998C50.3334 26.4419 50.1578 26.8658 49.8452 27.1783C49.5327 27.4909 49.1087 27.6665 48.6667 27.6665H39.5C39.058 27.6665 38.6341 27.4909 38.3215 27.1783C38.009 26.8658 37.8334 26.4419 37.8334 25.9998V16.8332C37.8334 16.3911 38.009 15.9672 38.3215 15.6547C38.6341 15.3421 39.058 15.1665 39.5 15.1665H42" stroke="#021F61" stroke-width="1.5" stroke-linecap="round" stroke-linejoin="round"/>
<path d="M65.9805 26.5H60.7852V16.6973H65.7617V17.7363H61.9336V20.9971H65.4746V22.0293H61.9336V25.4609H65.9805V26.5ZM73.6914 26.5H72.5703V25.3105H72.543C72.0234 26.2129 71.2214 26.6641 70.1367 26.6641C69.2572 26.6641 68.5531 26.3519 68.0244 25.7275C67.5003 25.0986 67.2383 24.2441 67.2383 23.1641C67.2383 22.0065 67.5299 21.0791 68.1133 20.3818C68.6966 19.6846 69.4736 19.3359 70.4443 19.3359C71.4059 19.3359 72.1055 19.7142 72.543 20.4707H72.5703V16.1367H73.6914V26.5ZM72.5703 23.335V22.3027C72.5703 21.7376 72.3835 21.2591 72.0098 20.8672C71.6361 20.4753 71.1621 20.2793 70.5879 20.2793C69.9043 20.2793 69.3665 20.5299 68.9746 21.0312C68.5827 21.5326 68.3867 22.2253 68.3867 23.1094C68.3867 23.916 68.5736 24.554 68.9473 25.0234C69.3255 25.4883 69.8314 25.7207 70.4648 25.7207C71.0892 25.7207 71.5951 25.4951 71.9824 25.0439C72.3743 24.5928 72.5703 24.0231 72.5703 23.335ZM76.5352 17.7227C76.3346 17.7227 76.1637 17.6543 76.0225 17.5176C75.8812 17.3809 75.8105 17.2077 75.8105 16.998C75.8105 16.7884 75.8812 16.6152 76.0225 16.4785C76.1637 16.3372 76.3346 16.2666 76.5352 16.2666C76.7402 16.2666 76.9134 16.3372 77.0547 16.4785C77.2005 16.6152 77.2734 16.7884 77.2734 16.998C77.2734 17.1986 77.2005 17.3695 77.0547 17.5107C76.9134 17.652 76.7402 17.7227 76.5352 17.7227ZM77.082 26.5H75.9609V19.5H77.082V26.5ZM82.5986 26.4316C82.3343 26.5775 81.9857 26.6504 81.5527 26.6504C80.3268 26.6504 79.7139 25.9668 79.7139 24.5996V20.457H78.5107V19.5H79.7139V17.791L80.835 17.4287V19.5H82.5986V20.457H80.835V24.4014C80.835 24.8708 80.9147 25.2057 81.0742 25.4062C81.2337 25.6068 81.498 25.707 81.8672 25.707C82.1497 25.707 82.3936 25.6296 82.5986 25.4746V26.4316Z" fill="#021F61"/>
</svg>
