<svg width="30" height="26" viewBox="0 0 30 26" fill="none" xmlns="http://www.w3.org/2000/svg">
<rect width="30" height="26" rx="1" fill="#F5F5F5"/>
<path d="M18.7282 7.50652L20.4932 9.27069M19.8632 5.95236L15.0907 10.7249C14.8441 10.9711 14.6759 11.2848 14.6073 11.6265L14.1665 13.8332L16.3732 13.3915C16.7148 13.3232 17.0282 13.1557 17.2748 12.909L22.0473 8.13652C22.1908 7.99311 22.3045 7.82285 22.3821 7.63547C22.4597 7.44809 22.4997 7.24726 22.4997 7.04444C22.4997 6.84162 22.4597 6.64079 22.3821 6.45341C22.3045 6.26603 22.1908 6.09577 22.0473 5.95236C21.9039 5.80894 21.7337 5.69518 21.5463 5.61756C21.3589 5.53995 21.1581 5.5 20.9553 5.5C20.7524 5.5 20.5516 5.53995 20.3642 5.61756C20.1768 5.69518 20.0066 5.80894 19.8632 5.95236V5.95236Z" stroke="#222222" stroke-linecap="round" stroke-linejoin="round"/>
<path d="M20.8333 15.4998V17.9998C20.8333 18.4419 20.6577 18.8658 20.3451 19.1783C20.0325 19.4909 19.6086 19.6665 19.1666 19.6665H9.99992C9.55789 19.6665 9.13397 19.4909 8.82141 19.1783C8.50885 18.8658 8.33325 18.4419 8.33325 17.9998V8.83317C8.33325 8.39114 8.50885 7.96722 8.82141 7.65466C9.13397 7.3421 9.55789 7.1665 9.99992 7.1665H12.4999" stroke="#222222" stroke-linecap="round" stroke-linejoin="round"/>
</svg>
