<svg width="18" height="18" viewBox="0 0 18 18" fill="none" xmlns="http://www.w3.org/2000/svg">
<path d="M9 10.5L15.75 6.75L9 3L2.25 6.75L9 10.5Z" stroke="#222222"/>
<path d="M9 10.5L13.62 7.93347C14.2279 9.47704 14.4004 11.1579 14.1187 12.7927C12.2164 12.9774 10.4229 13.7652 9 15.0412C7.57729 13.7653 5.78406 12.9775 3.882 12.7927C3.60015 11.1579 3.77267 9.47699 4.38075 7.93347L9 10.5Z" stroke="#222222"/>
<path d="M6 15V9.375L9 7.7085M9 10.5L15.75 6.75L9 3L2.25 6.75L9 10.5ZM9 10.5L13.62 7.9335C14.2279 9.47707 14.4004 11.1579 14.1188 12.7927C12.2164 12.9774 10.4229 13.7652 9 15.0413C7.57729 13.7654 5.78406 12.9775 3.882 12.7927C3.60015 11.1579 3.77267 9.47702 4.38075 7.9335L9 10.5Z" stroke="#222222" stroke-width="1.5" stroke-linecap="round" stroke-linejoin="round"/>
</svg>
