<svg width="5" height="15" viewBox="0 0 5 15" fill="none" xmlns="http://www.w3.org/2000/svg">
<path d="M0.0259368 2.85918C-0.0255925 2.50424 -0.000147455 2.14237 0.100545 1.79814C0.201237 1.4539 0.374818 1.13536 0.609504 0.864144C0.84419 0.592926 1.13449 0.37538 1.46068 0.226276C1.78688 0.0771717 2.14134 0 2.5 0C2.85866 0 3.21312 0.0771717 3.53932 0.226276C3.86551 0.37538 4.15581 0.592926 4.3905 0.864144C4.62518 1.13536 4.79876 1.4539 4.89946 1.79814C5.00015 2.14237 5.02559 2.50424 4.97406 2.85918L4.14409 8.6661C4.08665 9.06115 3.88888 9.4223 3.58697 9.68349C3.28506 9.94467 2.8992 10.0884 2.5 10.0884C2.1008 10.0884 1.71494 9.94467 1.41303 9.68349C1.11112 9.4223 0.913353 9.06115 0.855908 8.6661L0.0259368 2.85918ZM3.94092 12.9745C3.94092 13.3566 3.78911 13.7231 3.51889 13.9933C3.24866 14.2636 2.88216 14.4154 2.5 14.4154C2.11784 14.4154 1.75134 14.2636 1.48111 13.9933C1.21089 13.7231 1.05908 13.3566 1.05908 12.9745C1.05908 12.5923 1.21089 12.2258 1.48111 11.9556C1.75134 11.6853 2.11784 11.5335 2.5 11.5335C2.88216 11.5335 3.24866 11.6853 3.51889 11.9556C3.78911 12.2258 3.94092 12.5923 3.94092 12.9745Z" fill="#EB5757"/>
</svg>
