<svg width="18" height="18" viewBox="0 0 18 18" fill="none" xmlns="http://www.w3.org/2000/svg">
<path fill-rule="evenodd" clip-rule="evenodd" d="M9.4464 1.9188C9.31044 1.84114 9.15658 1.80029 9 1.80029C8.84343 1.80029 8.68956 1.84114 8.5536 1.9188L2.2536 5.5188C2.08141 5.61731 1.94658 5.76996 1.8701 5.953C1.79361 6.13604 1.77974 6.33923 1.83065 6.53097C1.88156 6.72271 1.9944 6.89226 2.15162 7.01325C2.30883 7.13424 2.50162 7.19989 2.7 7.2V13.5C2.46131 13.5 2.23239 13.5948 2.06361 13.7636C1.89482 13.9324 1.8 14.1613 1.8 14.4C1.8 14.6387 1.89482 14.8676 2.06361 15.0364C2.23239 15.2052 2.46131 15.3 2.7 15.3H15.3C15.5387 15.3 15.7676 15.2052 15.9364 15.0364C16.1052 14.8676 16.2 14.6387 16.2 14.4C16.2 14.1613 16.1052 13.9324 15.9364 13.7636C15.7676 13.5948 15.5387 13.5 15.3 13.5V7.2C15.4984 7.19989 15.6912 7.13424 15.8484 7.01325C16.0056 6.89226 16.1184 6.72271 16.1694 6.53097C16.2203 6.33923 16.2064 6.13604 16.1299 5.953C16.0534 5.76996 15.9186 5.61731 15.7464 5.5188L9.4464 1.9188ZM5.4 8.1C5.16131 8.1 4.93239 8.19482 4.76361 8.36361C4.59482 8.53239 4.5 8.76131 4.5 9V11.7C4.5 11.9387 4.59482 12.1676 4.76361 12.3364C4.93239 12.5052 5.16131 12.6 5.4 12.6C5.6387 12.6 5.86762 12.5052 6.0364 12.3364C6.20518 12.1676 6.3 11.9387 6.3 11.7V9C6.3 8.76131 6.20518 8.53239 6.0364 8.36361C5.86762 8.19482 5.6387 8.1 5.4 8.1ZM8.1 9C8.1 8.76131 8.19482 8.53239 8.36361 8.36361C8.53239 8.19482 8.76131 8.1 9 8.1C9.2387 8.1 9.46762 8.19482 9.6364 8.36361C9.80518 8.53239 9.9 8.76131 9.9 9V11.7C9.9 11.9387 9.80518 12.1676 9.6364 12.3364C9.46762 12.5052 9.2387 12.6 9 12.6C8.76131 12.6 8.53239 12.5052 8.36361 12.3364C8.19482 12.1676 8.1 11.9387 8.1 11.7V9ZM12.6 8.1C12.3613 8.1 12.1324 8.19482 11.9636 8.36361C11.7948 8.53239 11.7 8.76131 11.7 9V11.7C11.7 11.9387 11.7948 12.1676 11.9636 12.3364C12.1324 12.5052 12.3613 12.6 12.6 12.6C12.8387 12.6 13.0676 12.5052 13.2364 12.3364C13.4052 12.1676 13.5 11.9387 13.5 11.7V9C13.5 8.76131 13.4052 8.53239 13.2364 8.36361C13.0676 8.19482 12.8387 8.1 12.6 8.1Z" fill="#222222"/>
</svg>
