<svg width="16" height="16" viewBox="0 0 16 16" fill="none" xmlns="http://www.w3.org/2000/svg">
<path fill-rule="evenodd" clip-rule="evenodd" d="M9.33444 8.66683H8.66777V8.00016C8.66777 7.63216 8.36977 7.3335 8.0011 7.3335C7.63244 7.3335 7.33444 7.63216 7.33444 8.00016V8.66683H6.66777C6.2991 8.66683 6.0011 8.9655 6.0011 9.3335C6.0011 9.7015 6.2991 10.0002 6.66777 10.0002H7.33444V10.6668C7.33444 11.0348 7.63244 11.3335 8.0011 11.3335C8.36977 11.3335 8.66777 11.0348 8.66777 10.6668V10.0002H9.33444C9.7031 10.0002 10.0011 9.7015 10.0011 9.3335C10.0011 8.9655 9.7031 8.66683 9.33444 8.66683ZM11.6306 13.3335H4.3713C4.1673 13.3335 4.0013 13.1842 4.0013 13.0002V3.00016C4.0013 2.81616 4.1673 2.66683 4.3713 2.66683H8.0013V4.76683C8.0013 5.81483 8.81264 6.66683 9.81064 6.66683H12.0013V13.0002C12.0013 13.1842 11.8353 13.3335 11.6306 13.3335ZM9.33464 3.31883L11.1626 5.3335H9.81064C9.54797 5.3335 9.33464 5.0795 9.33464 4.76683V3.31883ZM13.1613 5.55216L9.53197 1.55216C9.4053 1.41283 9.22664 1.3335 9.03797 1.3335H4.3713C3.43197 1.3335 2.66797 2.0815 2.66797 3.00016V13.0002C2.66797 13.9188 3.43197 14.6668 4.3713 14.6668H11.6306C12.57 14.6668 13.3346 13.9188 13.3346 13.0002V6.00016C13.3346 5.83416 13.2726 5.67483 13.1613 5.55216Z" fill="#021F61"/>
</svg>
