<svg width="16" height="16" viewBox="0 0 16 16" fill="none" xmlns="http://www.w3.org/2000/svg">
<path fill-rule="evenodd" clip-rule="evenodd" d="M8.0011 9.3335H6.0011C5.6331 9.3335 5.33444 9.03483 5.33444 8.66683C5.33444 8.29883 5.6331 8.00016 6.0011 8.00016H8.0011C8.3691 8.00016 8.66777 8.29883 8.66777 8.66683C8.66777 9.03483 8.3691 9.3335 8.0011 9.3335ZM6.0011 10.6668H10.0011C10.3698 10.6668 10.6678 10.9655 10.6678 11.3335C10.6678 11.7015 10.3698 12.0002 10.0011 12.0002H6.0011C5.6331 12.0002 5.33444 11.7015 5.33444 11.3335C5.33444 10.9655 5.6331 10.6668 6.0011 10.6668ZM11.6306 13.3335H4.3713C4.1673 13.3335 4.0013 13.1842 4.0013 13.0002V3.00016C4.0013 2.81616 4.1673 2.66683 4.3713 2.66683H8.0013V4.76683C8.0013 5.81483 8.81264 6.66683 9.81064 6.66683H12.0013V13.0002C12.0013 13.1842 11.8353 13.3335 11.6306 13.3335ZM9.33464 3.31883L11.1626 5.3335H9.81064C9.54797 5.3335 9.33464 5.0795 9.33464 4.76683V3.31883ZM13.1613 5.55216L9.53197 1.55216C9.4053 1.41283 9.22664 1.3335 9.03797 1.3335H4.3713C3.43197 1.3335 2.66797 2.0815 2.66797 3.00016V13.0002C2.66797 13.9188 3.43197 14.6668 4.3713 14.6668H11.6306C12.57 14.6668 13.3346 13.9188 13.3346 13.0002V6.00016C13.3346 5.83416 13.2726 5.67483 13.1613 5.55216Z" fill="#222222"/>
</svg>
