<svg width="27" height="24" viewBox="0 0 27 24" fill="none" xmlns="http://www.w3.org/2000/svg">
<path d="M10.1554 7.47514C10.095 7.1058 10.1248 6.72926 10.2427 6.37106C10.3606 6.01286 10.5638 5.68141 10.8385 5.39919C11.1132 5.11697 11.4531 4.8906 11.8349 4.73545C12.2168 4.5803 12.6317 4.5 13.0516 4.5C13.4714 4.5 13.8864 4.5803 14.2682 4.73545C14.6501 4.8906 14.9899 5.11697 15.2646 5.39919C15.5394 5.68141 15.7426 6.01286 15.8604 6.37106C15.9783 6.72926 16.0081 7.1058 15.9478 7.47514L14.9762 13.5176C14.9089 13.9286 14.6774 14.3044 14.324 14.5762C13.9706 14.848 13.5189 14.9975 13.0516 14.9975C12.5842 14.9975 12.1325 14.848 11.7791 14.5762C11.4257 14.3044 11.1942 13.9286 11.1269 13.5176L10.1554 7.47514V7.47514ZM14.7383 18.0006C14.7383 18.3983 14.5606 18.7797 14.2443 19.0608C13.928 19.342 13.4989 19.5 13.0516 19.5C12.6042 19.5 12.1752 19.342 11.8588 19.0608C11.5425 18.7797 11.3648 18.3983 11.3648 18.0006C11.3648 17.603 11.5425 17.2216 11.8588 16.9404C12.1752 16.6592 12.6042 16.5013 13.0516 16.5013C13.4989 16.5013 13.928 16.6592 14.2443 16.9404C14.5606 17.2216 14.7383 17.603 14.7383 18.0006V18.0006Z" fill="#EB5757"/>
</svg>
