<svg width="18" height="18" viewBox="0 0 18 18" fill="none" xmlns="http://www.w3.org/2000/svg">
<path d="M17.5781 13.5C17.8102 13.5 18 13.6898 18 13.9219V15.3281C18 15.5602 17.8102 15.75 17.5781 15.75H0.421875C0.189844 15.75 0 15.5602 0 15.3281V2.67188C0 2.43984 0.189844 2.25 0.421875 2.25H1.82812C2.06016 2.25 2.25 2.43984 2.25 2.67188V13.5H17.5781ZM13.1027 5.60742L10.125 7.59375L7.12617 3.59648C6.94688 3.35742 6.58125 3.375 6.42656 3.63164L3.375 8.71875V12.375H16.875L13.7145 5.77266C13.602 5.54414 13.3137 5.4668 13.1027 5.60742Z" fill="#222222"/>
</svg>
