<svg width="30" height="26" viewBox="0 0 30 26" fill="none" xmlns="http://www.w3.org/2000/svg">
<rect width="30" height="26" rx="1" fill="#F5F5F5"/>
<path d="M17.766 20C18.3443 19.9998 18.9047 19.7993 19.3517 19.4324C19.7988 19.0656 20.1049 18.5551 20.218 17.988C20.7077 17.9343 21.1604 17.7017 21.4893 17.3349C21.8181 16.968 22 16.4927 22 16V8C22 7.46957 21.7893 6.96086 21.4142 6.58579C21.0391 6.21071 20.5304 6 20 6H12C11.5018 6.00008 11.0216 6.18609 10.6534 6.5216C10.2851 6.85711 10.0553 7.31798 10.009 7.814C9.44232 7.92751 8.93247 8.23384 8.5662 8.68088C8.19992 9.12793 7.99984 9.68807 8 10.266V16.5C8 17.4283 8.36875 18.3185 9.02513 18.9749C9.6815 19.6313 10.5717 20 11.5 20H17.766ZM9 10.266C8.99963 9.9555 9.09562 9.65254 9.27474 9.39892C9.45385 9.14529 9.70726 8.9535 10 8.85V16C10 16.5304 10.2107 17.0391 10.5858 17.4142C10.9609 17.7893 11.4696 18 12 18H19.18C19.0766 18.2924 18.8851 18.5456 18.6319 18.7247C18.3787 18.9038 18.0762 19 17.766 19H11.5C10.837 19 10.2011 18.7366 9.73223 18.2678C9.26339 17.7989 9 17.163 9 16.5V10.266ZM14.516 9H18.5C18.6326 9 18.7598 9.05268 18.8536 9.14645C18.9473 9.24021 19 9.36739 19 9.5V13.484C19 13.6166 18.9473 13.7438 18.8536 13.8376C18.7598 13.9313 18.6326 13.984 18.5 13.984C18.3674 13.984 18.2402 13.9313 18.1464 13.8376C18.0527 13.7438 18 13.6166 18 13.484V10.707L13.854 14.854C13.7601 14.9479 13.6328 15.0006 13.5 15.0006C13.3672 15.0006 13.2399 14.9479 13.146 14.854C13.0521 14.7601 12.9994 14.6328 12.9994 14.5C12.9994 14.3672 13.0521 14.2399 13.146 14.146L17.293 10H14.516C14.3834 10 14.2562 9.94732 14.1624 9.85355C14.0687 9.75979 14.016 9.63261 14.016 9.5C14.016 9.36739 14.0687 9.24021 14.1624 9.14645C14.2562 9.05268 14.3834 9 14.516 9Z" fill="#021F61"/>
</svg>
