<svg width="27" height="24" viewBox="0 0 27 24" fill="none" xmlns="http://www.w3.org/2000/svg">
<path fill-rule="evenodd" clip-rule="evenodd" d="M13.5001 6C13.7239 6 13.9385 6.07902 14.0967 6.21967C14.2549 6.36032 14.3438 6.55109 14.3438 6.75V15.4395L17.9652 12.219C18.0437 12.1493 18.1368 12.094 18.2393 12.0562C18.3418 12.0185 18.4516 11.9991 18.5626 11.9991C18.6735 11.9991 18.7834 12.0185 18.8859 12.0562C18.9884 12.094 19.0815 12.1493 19.16 12.219C19.2384 12.2887 19.3006 12.3715 19.3431 12.4626C19.3856 12.5537 19.4074 12.6514 19.4074 12.75C19.4074 12.8486 19.3856 12.9463 19.3431 13.0374C19.3006 13.1285 19.2384 13.2113 19.16 13.281L14.0975 17.781C14.0191 17.8508 13.926 17.9063 13.8235 17.9441C13.721 17.9819 13.6111 18.0013 13.5001 18.0013C13.3891 18.0013 13.2792 17.9819 13.1767 17.9441C13.0742 17.9063 12.9811 17.8508 12.9027 17.781L7.84021 13.281C7.76177 13.2113 7.69954 13.1285 7.65708 13.0374C7.61463 12.9463 7.59277 12.8486 7.59277 12.75C7.59277 12.6514 7.61463 12.5537 7.65708 12.4626C7.69954 12.3715 7.76177 12.2887 7.84021 12.219C7.99865 12.0782 8.21353 11.9991 8.43759 11.9991C8.54853 11.9991 8.65839 12.0185 8.76089 12.0562C8.86338 12.094 8.95652 12.1493 9.03496 12.219L12.6563 15.4395V6.75C12.6563 6.55109 12.7452 6.36032 12.9035 6.21967C13.0617 6.07902 13.2763 6 13.5001 6V6Z" fill="#2D9CDB"/>
</svg>
