<svg width="16" height="14" viewBox="0 0 16 14" fill="none" xmlns="http://www.w3.org/2000/svg">
<path fill-rule="evenodd" clip-rule="evenodd" d="M13.5553 11.4949L14.5303 12.4699C14.8235 12.7632 14.8235 13.2372 14.5303 13.5304C14.384 13.6767 14.192 13.7502 14 13.7502C13.808 13.7502 13.616 13.6767 13.4697 13.5304L11.4395 11.5002L11 11.0607L9.99125 10.0519L9.9395 10.0002L8.06277 8.12346C8.04199 8.12461 8.02106 8.12519 8 8.12519C7.37975 8.12519 6.875 7.62044 6.875 7.00019C6.875 6.97913 6.87558 6.9582 6.87673 6.93742L4.46225 4.52294L3.149 3.20969L1.46975 1.53044C1.1765 1.23719 1.1765 0.763188 1.46975 0.469938C1.763 0.176688 2.237 0.176688 2.53025 0.469938L3.815 1.75469L4.91375 2.85344L7.93723 5.87692C7.95801 5.87577 7.97894 5.87519 8 5.87519C8.62025 5.87519 9.125 6.37994 9.125 7.00019C9.125 7.02125 9.12442 7.04218 9.12327 7.06296L12.0605 10.0002L13.5553 11.4949ZM5.4446 2.32334L7.54235 4.42109C7.6916 4.39484 7.8431 4.37534 7.99985 4.37534C9.44735 4.37534 10.6249 5.55284 10.6249 7.00034C10.6249 7.15709 10.6054 7.30859 10.5791 7.45784L12.5906 9.47009L13.2161 10.0956C14.3576 9.05459 15.0896 7.91534 15.4009 7.37309C15.5329 7.14209 15.5329 6.85784 15.4009 6.62684C14.9224 5.79284 12.2794 1.61234 7.79735 1.75259C6.90935 1.77584 6.10535 1.96709 5.37635 2.25584L5.4446 2.32334ZM9.461 10.583L10.4698 11.591L10.6235 11.7448C9.8945 12.0335 9.09125 12.2248 8.20325 12.2473C8.14175 12.2495 8.0795 12.2503 8.01875 12.2503C3.6215 12.2503 1.0715 8.19651 0.599 7.37301C0.467 7.14201 0.467 6.85776 0.599 6.62676C0.91025 6.08526 1.64225 4.94601 2.78375 3.90501L3.932 5.05401L5.4215 6.54276C5.3945 6.69201 5.375 6.84351 5.375 7.00026C5.375 8.44776 6.5525 9.62526 8 9.62526C8.15675 9.62526 8.30825 9.60576 8.4575 9.57876L9.40925 10.5305L9.461 10.583Z" fill="#707070"/>
</svg>
