<svg width="69" height="80" viewBox="0 0 69 80" fill="none" xmlns="http://www.w3.org/2000/svg">
<path d="M23.125 0.625001C20.1413 0.625001 17.2798 1.81027 15.17 3.92005C13.0603 6.02983 11.875 8.89132 11.875 11.875V25.3806C13.6135 24.374 15.5188 23.6881 17.5 23.3556V11.875C17.5 10.3832 18.0926 8.95242 19.1475 7.89752C20.2024 6.84263 21.6332 6.25 23.125 6.25H40V20.3125C40 22.5503 40.8889 24.6964 42.4713 26.2787C44.0536 27.8611 46.1997 28.75 48.4375 28.75H62.5V68.125C62.5 69.6168 61.9074 71.0476 60.8525 72.1025C59.7976 73.1574 58.3668 73.75 56.875 73.75H43.555C42.4245 75.875 40.888 77.7574 39.0325 79.2906L38.9313 79.375H56.875C59.8587 79.375 62.7202 78.1897 64.8299 76.0799C66.9397 73.9702 68.125 71.1087 68.125 68.125V25.4538C68.123 23.2167 67.2328 21.0721 65.65 19.4913L49.2644 3.09438C48.4805 2.311 47.55 1.68972 46.5259 1.26602C45.5019 0.842318 44.4045 0.624499 43.2963 0.625001H23.125ZM61.3356 23.125H48.4375C47.6916 23.125 46.9762 22.8287 46.4488 22.3012C45.9213 21.7738 45.625 21.0584 45.625 20.3125V7.41438L61.3356 23.125ZM31.5625 40C31.5625 42.9837 30.3772 45.8452 28.2675 47.9549C26.1577 50.0647 23.2962 51.25 20.3125 51.25C17.3288 51.25 14.4673 50.0647 12.3575 47.9549C10.2478 45.8452 9.0625 42.9837 9.0625 40C9.0625 37.0163 10.2478 34.1548 12.3575 32.045C14.4673 29.9353 17.3288 28.75 20.3125 28.75C23.2962 28.75 26.1577 29.9353 28.2675 32.045C30.3772 34.1548 31.5625 37.0163 31.5625 40ZM40 65.3125C40 72.3156 34.375 79.375 20.3125 79.375C6.25 79.375 0.625 72.3438 0.625 65.3125C0.625 63.0747 1.51395 60.9286 3.09629 59.3463C4.67863 57.7639 6.82474 56.875 9.0625 56.875H31.5625C33.8003 56.875 35.9464 57.7639 37.5287 59.3463C39.1111 60.9286 40 63.0747 40 65.3125Z" fill="#B51ECD"/>
</svg>
