<svg width="18" height="18" viewBox="0 0 18 18" fill="none" xmlns="http://www.w3.org/2000/svg">
<g clip-path="url(#clip0_834_2053)">
<path d="M17.25 3H2.75C2.33578 3 2 3.33578 2 3.75V4H0.75C0.335781 4 0 4.33578 0 4.75V13.25C0 14.2165 0.7835 15 1.75 15H16.5C17.3284 15 18 14.3284 18 13.5V3.75C18 3.33578 17.6642 3 17.25 3ZM1.75 13.5C1.6837 13.5 1.62011 13.4737 1.57322 13.4268C1.52634 13.3799 1.5 13.3163 1.5 13.25V5.5H2V13.25C2 13.3163 1.97366 13.3799 1.92678 13.4268C1.87989 13.4737 1.8163 13.5 1.75 13.5ZM9.125 13H4.375C4.16791 13 4 12.8321 4 12.625V12.375C4 12.1679 4.16791 12 4.375 12H9.125C9.33209 12 9.5 12.1679 9.5 12.375V12.625C9.5 12.8321 9.33209 13 9.125 13ZM15.625 13H10.875C10.6679 13 10.5 12.8321 10.5 12.625V12.375C10.5 12.1679 10.6679 12 10.875 12H15.625C15.8321 12 16 12.1679 16 12.375V12.625C16 12.8321 15.8321 13 15.625 13ZM9.125 10H4.375C4.16791 10 4 9.83209 4 9.625V9.375C4 9.16791 4.16791 9 4.375 9H9.125C9.33209 9 9.5 9.16791 9.5 9.375V9.625C9.5 9.83209 9.33209 10 9.125 10ZM15.625 10H10.875C10.6679 10 10.5 9.83209 10.5 9.625V9.375C10.5 9.16791 10.6679 9 10.875 9H15.625C15.8321 9 16 9.16791 16 9.375V9.625C16 9.83209 15.8321 10 15.625 10ZM15.625 7H4.375C4.16791 7 4 6.83209 4 6.625V5.375C4 5.16791 4.16791 5 4.375 5H15.625C15.8321 5 16 5.16791 16 5.375V6.625C16 6.83209 15.8321 7 15.625 7Z" fill="#222222"/>
</g>
<defs>
<clipPath id="clip0_834_2053">
<rect width="18" height="18" fill="white"/>
</clipPath>
</defs>
</svg>
