<svg width="18" height="18" viewBox="0 0 18 18" fill="none" xmlns="http://www.w3.org/2000/svg">
<g clip-path="url(#clip0_833_2015)">
<path d="M12.5813 3.60005L15.4 6.4188C15.5187 6.53755 15.5187 6.7313 15.4 6.85005L8.575 13.675L5.675 13.9969C5.2875 14.0407 4.95938 13.7125 5.00313 13.325L5.325 10.425L12.15 3.60005C12.2687 3.4813 12.4625 3.4813 12.5813 3.60005ZM17.6437 2.88442L16.1187 1.35942C15.6437 0.884424 14.8719 0.884424 14.3938 1.35942L13.2875 2.46567C13.1688 2.58442 13.1688 2.77817 13.2875 2.89692L16.1063 5.71567C16.225 5.83442 16.4188 5.83442 16.5375 5.71567L17.6437 4.60942C18.1187 4.1313 18.1187 3.35942 17.6437 2.88442ZM12 11.8188V15H2V5.00005H9.18125C9.28125 5.00005 9.375 4.95942 9.44687 4.89067L10.6969 3.64067C10.9344 3.40317 10.7656 3.00005 10.4312 3.00005H1.5C0.671875 3.00005 0 3.67192 0 4.50005V15.5C0 16.3282 0.671875 17 1.5 17H12.5C13.3281 17 14 16.3282 14 15.5V10.5688C14 10.2344 13.5969 10.0688 13.3594 10.3032L12.1094 11.5532C12.0406 11.625 12 11.7188 12 11.8188Z" fill="#222222"/>
</g>
<defs>
<clipPath id="clip0_833_2015">
<rect width="18" height="18" fill="white"/>
</clipPath>
</defs>
</svg>
