<svg width="50" height="50" viewBox="0 0 50 50" fill="none" xmlns="http://www.w3.org/2000/svg">
<rect width="50" height="50" rx="3" fill="#F4C128"/>
<path d="M27.1094 29.6875V35.3125C27.1094 35.7476 27.2822 36.1649 27.5899 36.4726C27.8976 36.7803 28.3149 36.9531 28.75 36.9531H34.375C34.8101 36.9531 35.2274 36.7803 35.5351 36.4726C35.8428 36.1649 36.0156 35.7476 36.0156 35.3125L36.0156 29.6875C36.0156 29.2524 35.8428 28.8351 35.5351 28.5274C35.2274 28.2197 34.8101 28.0469 34.375 28.0469H32.2656V26.875C32.2625 25.9435 31.8911 25.0511 31.2325 24.3925C30.5739 23.7339 29.6815 23.3625 28.75 23.3594H25.7031V20.0781H27.3438C27.7789 20.0781 28.1962 19.9053 28.5038 19.5976C28.8115 19.2899 28.9844 18.8726 28.9844 18.4375V13.75C28.9844 13.3149 28.8115 12.8976 28.5038 12.5899C28.1962 12.2822 27.7789 12.1094 27.3438 12.1094H22.6562C22.2211 12.1094 21.8038 12.2822 21.4962 12.5899C21.1885 12.8976 21.0156 13.3149 21.0156 13.75V18.4375C21.0156 18.8726 21.1885 19.2899 21.4962 19.5976C21.8038 19.9053 22.2211 20.0781 22.6562 20.0781L24.2969 20.0781V23.3594H21.25C20.3185 23.3625 19.4261 23.7339 18.7675 24.3925C18.1089 25.0511 17.7375 25.9435 17.7344 26.875V28.0469H15.625C15.1899 28.0469 14.7726 28.2197 14.4649 28.5274C14.1572 28.8351 13.9844 29.2524 13.9844 29.6875V35.3125C13.9844 35.7476 14.1572 36.1649 14.4649 36.4726C14.7726 36.7803 15.1899 36.9531 15.625 36.9531H21.25C21.6851 36.9531 22.1024 36.7803 22.4101 36.4726C22.7178 36.1649 22.8906 35.7476 22.8906 35.3125V29.6875C22.8906 29.2524 22.7178 28.8351 22.4101 28.5274C22.1024 28.2197 21.6851 28.0469 21.25 28.0469L19.1406 28.0469V26.875C19.1437 26.3165 19.3669 25.7818 19.7618 25.3868C20.1568 24.9919 20.6915 24.7687 21.25 24.7656H28.75C29.3085 24.7687 29.8432 24.9919 30.2382 25.3868C30.6331 25.7818 30.8563 26.3165 30.8594 26.875V28.0469H28.75C28.3149 28.0469 27.8976 28.2197 27.5899 28.5274C27.2822 28.8351 27.1094 29.2524 27.1094 29.6875ZM22.6562 18.6719C22.5941 18.6719 22.5345 18.6472 22.4905 18.6032C22.4466 18.5593 22.4219 18.4997 22.4219 18.4375V13.75C22.4219 13.6878 22.4466 13.6282 22.4905 13.5843C22.5345 13.5403 22.5941 13.5156 22.6562 13.5156H27.3438C27.4059 13.5156 27.4655 13.5403 27.5095 13.5843C27.5534 13.6282 27.5781 13.6878 27.5781 13.75V18.4375C27.5781 18.4997 27.5534 18.5593 27.5095 18.6032C27.4655 18.6472 27.4059 18.6719 27.3438 18.6719L22.6562 18.6719ZM21.25 29.4531C21.3122 29.4531 21.3718 29.4778 21.4157 29.5218C21.4597 29.5657 21.4844 29.6253 21.4844 29.6875V35.3125C21.4844 35.3747 21.4597 35.4343 21.4157 35.4782C21.3718 35.5222 21.3122 35.5469 21.25 35.5469H15.625C15.5628 35.5469 15.5032 35.5222 15.4593 35.4782C15.4153 35.4343 15.3906 35.3747 15.3906 35.3125V29.6875C15.3906 29.6253 15.4153 29.5657 15.4593 29.5218C15.5032 29.4778 15.5628 29.4531 15.625 29.4531H21.25ZM34.375 29.4531C34.4372 29.4531 34.4968 29.4778 34.5407 29.5218C34.5847 29.5657 34.6094 29.6253 34.6094 29.6875L34.6094 35.3125C34.6094 35.3747 34.5847 35.4343 34.5407 35.4782C34.4968 35.5222 34.4372 35.5469 34.375 35.5469H28.75C28.6878 35.5469 28.6282 35.5222 28.5843 35.4782C28.5403 35.4343 28.5156 35.3747 28.5156 35.3125V29.6875C28.5156 29.6253 28.5403 29.5657 28.5843 29.5218C28.6282 29.4778 28.6878 29.4531 28.75 29.4531H34.375Z" fill="#021F61"/>
</svg>
