<svg width="15" height="15" viewBox="0 0 15 15" fill="none" xmlns="http://www.w3.org/2000/svg">
<path d="M13.1044 2.56973C13.4159 2.67921 13.6858 2.88273 13.8767 3.15217C14.0675 3.42161 14.17 3.74367 14.17 4.07387V11.1589C14.17 11.9575 13.8528 12.7234 13.2881 13.2881C12.7234 13.8528 11.9575 14.17 11.1589 14.17H4.07387C3.74367 14.17 3.42161 14.0675 3.15217 13.8767C2.88273 13.6858 2.67921 13.4159 2.56973 13.1044L4.05545 13.1073H11.1589C11.6756 13.1073 12.1712 12.902 12.5366 12.5366C12.902 12.1712 13.1073 11.6756 13.1073 11.1589V4.07387L13.1044 4.03774V2.56973ZM10.8018 0C11.2246 0 11.6301 0.167952 11.929 0.466908C12.228 0.765865 12.3959 1.17134 12.3959 1.59413V10.8025C12.3959 11.2253 12.228 11.6308 11.929 11.9297C11.6301 12.2287 11.2246 12.3966 10.8018 12.3966H1.59413C1.17134 12.3966 0.765865 12.2287 0.466908 11.9297C0.167952 11.6308 0 11.2253 0 10.8025V1.59413C0 1.17134 0.167952 0.765865 0.466908 0.466908C0.765865 0.167952 1.17134 0 1.59413 0H10.8018ZM10.8018 1.06275H1.59413C1.4532 1.06275 1.31804 1.11873 1.21839 1.21839C1.11873 1.31804 1.06275 1.4532 1.06275 1.59413V10.8025C1.06275 11.0958 1.30081 11.3339 1.59413 11.3339H10.8025C10.9434 11.3339 11.0786 11.2779 11.1782 11.1782C11.2779 11.0786 11.3339 10.9434 11.3339 10.8025V1.59413C11.3339 1.4532 11.2779 1.31804 11.1782 1.21839C11.0786 1.11873 10.9427 1.06275 10.8018 1.06275ZM6.19938 3.36538C6.3403 3.36538 6.47546 3.42136 6.57511 3.52101C6.67477 3.62066 6.73075 3.75582 6.73075 3.89675V5.668H8.502C8.64293 5.668 8.77809 5.72398 8.87774 5.82364C8.97739 5.92329 9.03338 6.05845 9.03338 6.19938C9.03338 6.3403 8.97739 6.47546 8.87774 6.57511C8.77809 6.67477 8.64293 6.73075 8.502 6.73075H6.73075V8.502C6.73075 8.64293 6.67477 8.77809 6.57511 8.87774C6.47546 8.97739 6.3403 9.03338 6.19938 9.03338C6.05845 9.03338 5.92329 8.97739 5.82364 8.87774C5.72398 8.77809 5.668 8.64293 5.668 8.502V6.73075H3.89675C3.75582 6.73075 3.62066 6.67477 3.52101 6.57511C3.42136 6.47546 3.36538 6.3403 3.36538 6.19938C3.36538 6.05845 3.42136 5.92329 3.52101 5.82364C3.62066 5.72398 3.75582 5.668 3.89675 5.668H5.668V3.89675C5.668 3.75582 5.72398 3.62066 5.82364 3.52101C5.92329 3.42136 6.05845 3.36538 6.19938 3.36538Z" fill="#021F61"/>
</svg>
