<svg width="19" height="19" viewBox="0 0 19 19" fill="none" xmlns="http://www.w3.org/2000/svg">
<path fill-rule="evenodd" clip-rule="evenodd" d="M13.106 7.37881C13.106 8.24679 12.7612 9.07922 12.1475 9.69298C11.5337 10.3067 10.7013 10.6515 9.83331 10.6515C8.96532 10.6515 8.13289 10.3067 7.51914 9.69298C6.90538 9.07922 6.56058 8.24679 6.56058 7.37881C6.56058 6.51083 6.90538 5.67839 7.51914 5.06464C8.13289 4.45088 8.96532 4.10608 9.83331 4.10608C10.7013 4.10608 11.5337 4.45088 12.1475 5.06464C12.7612 5.67839 13.106 6.51083 13.106 7.37881ZM11.4697 7.37881C11.4697 7.8128 11.2973 8.22901 10.9904 8.53589C10.6835 8.84277 10.2673 9.01517 9.83331 9.01517C9.39931 9.01517 8.9831 8.84277 8.67622 8.53589C8.36934 8.22901 8.19694 7.8128 8.19694 7.37881C8.19694 6.94482 8.36934 6.5286 8.67622 6.22172C8.9831 5.91485 9.39931 5.74244 9.83331 5.74244C10.2673 5.74244 10.6835 5.91485 10.9904 6.22172C11.2973 6.5286 11.4697 6.94482 11.4697 7.37881Z" fill="#222222"/>
<path fill-rule="evenodd" clip-rule="evenodd" d="M9.83333 0.833374C4.86287 0.833374 0.833328 4.86292 0.833328 9.83337C0.833328 14.8038 4.86287 18.8334 9.83333 18.8334C14.8038 18.8334 18.8333 14.8038 18.8333 9.83337C18.8333 4.86292 14.8038 0.833374 9.83333 0.833374ZM2.46969 9.83337C2.46969 11.5434 3.05306 13.1176 4.03078 14.3677C4.71743 13.466 5.60325 12.7353 6.61905 12.2325C7.63485 11.7298 8.75312 11.4688 9.88651 11.4697C11.0052 11.4687 12.1094 11.723 13.115 12.2133C14.1206 12.7036 15.0009 13.4169 15.6891 14.299C16.398 13.3692 16.8753 12.284 17.0815 11.1331C17.2877 9.98225 17.217 8.79881 16.875 7.68072C16.5331 6.56264 15.9298 5.54205 15.1151 4.7034C14.3004 3.86476 13.2977 3.23217 12.19 2.85797C11.0823 2.48378 9.9014 2.37873 8.74503 2.55153C7.58866 2.72433 6.49007 3.17001 5.54014 3.85169C4.59021 4.53337 3.81626 5.43145 3.28233 6.47162C2.7484 7.5118 2.46984 8.66417 2.46969 9.83337ZM9.83333 17.197C8.14292 17.1995 6.50355 16.618 5.1926 15.5508C5.72027 14.7954 6.4226 14.1787 7.23985 13.753C8.05709 13.3274 8.96506 13.1054 9.88651 13.1061C10.7965 13.1054 11.6935 13.3218 12.503 13.7373C13.3125 14.1528 14.0113 14.7554 14.5411 15.4952C13.22 16.597 11.5536 17.1994 9.83333 17.197Z" fill="#222222"/>
</svg>
