<svg width="20" height="20" viewBox="0 0 20 20" fill="none" xmlns="http://www.w3.org/2000/svg">
<path d="M13.8554 11.8034L13.1232 12.5357L14.4623 13.8748L10.2305 13.8748L10.2305 14.9105L14.4623 14.9105L13.1232 16.2497L13.8554 16.9819L16.4447 14.3927L13.8554 11.8034Z" fill="#222222"/>
<path d="M9.71421 16.4643H4.5357V4.03588H8.67851V7.14298C8.67933 7.41742 8.78871 7.68038 8.98276 7.87443C9.17682 8.06848 9.43978 8.17787 9.71421 8.17869H12.8213V9.73224H13.857V7.14298C13.8588 7.07493 13.8459 7.00728 13.8191 6.9447C13.7923 6.88212 13.7522 6.8261 13.7017 6.78049L10.0767 3.15553C10.0311 3.10496 9.9751 3.06488 9.91251 3.03806C9.84993 3.01124 9.78227 2.99831 9.71421 3.00018H4.5357C4.26127 3.001 3.99831 3.11038 3.80426 3.30443C3.6102 3.49849 3.50082 3.76144 3.5 4.03588V16.4643C3.50082 16.7387 3.6102 17.0017 3.80426 17.1957C3.99831 17.3898 4.26127 17.4992 4.5357 17.5H9.71421V16.4643ZM9.71421 4.24302L12.6142 7.14298H9.71421V4.24302Z" fill="#222222"/>
</svg>
