<svg width="45" height="45" viewBox="0 0 45 45" fill="none" xmlns="http://www.w3.org/2000/svg">
<rect width="45" height="45" rx="3" fill="#2F80ED"/>
<path d="M32.31 23.24L31.49 22.61V22.39L32.29 21.76C32.45 21.64 32.49 21.42 32.39 21.25L31.54 19.77C31.505 19.7083 31.454 19.6572 31.3924 19.622C31.3308 19.5868 31.2609 19.5688 31.19 19.57C31.14 19.57 31.09 19.58 31.04 19.6L30.09 19.98C30.01 19.93 29.98 19.91 29.9 19.87L29.75 18.86C29.7384 18.7617 29.6914 18.6709 29.6178 18.6047C29.5442 18.5385 29.449 18.5013 29.35 18.5H27.64C27.44 18.5 27.27 18.65 27.24 18.84L27.1 19.85C27.07 19.87 27.03 19.88 27 19.9L26.91 19.96L25.96 19.58C25.8702 19.543 25.77 19.5398 25.6781 19.5711C25.5861 19.6023 25.5086 19.6659 25.46 19.75L24.61 21.23C24.51 21.4 24.55 21.62 24.71 21.74L25.51 22.37V22.6L24.71 23.23C24.6336 23.2879 24.5811 23.3718 24.5627 23.4659C24.5442 23.56 24.5611 23.6576 24.61 23.74L25.46 25.22C25.53 25.35 25.67 25.42 25.81 25.42C25.86 25.42 25.91 25.41 25.96 25.39L26.91 25.02C26.99 25.07 27.03 25.09 27.11 25.13L27.26 26.14C27.29 26.34 27.46 26.48 27.66 26.48H29.37C29.57 26.48 29.74 26.33 29.77 26.14L29.92 25.13C29.95 25.11 29.99 25.1 30.02 25.08L30.11 25.02L31.06 25.4C31.1498 25.437 31.25 25.4402 31.3419 25.4089C31.4339 25.3777 31.5114 25.3141 31.56 25.23L32.41 23.75C32.4589 23.6676 32.4758 23.57 32.4573 23.4759C32.4389 23.3818 32.3864 23.2979 32.31 23.24ZM28.5 24C27.67 24 27 23.33 27 22.5C27 21.67 27.67 21 28.5 21C29.33 21 30 21.67 30 22.5C30 23.33 29.33 24 28.5 24ZM27.5 27.5H29.5V31.5C29.5 32.6 28.6 33.5 27.5 33.5H17.5C16.4 33.5 15.5 32.6 15.5 31.5V13.5C15.5 12.4 16.4 11.5 17.5 11.5H27.5C28.6 11.5 29.5 12.4 29.5 13.5V17.5H27.5V16.5H17.5V28.5H27.5V27.5Z" fill="white"/>
</svg>
