<svg width="46" height="45" viewBox="0 0 46 45" fill="none" xmlns="http://www.w3.org/2000/svg">
<rect x="0.5" width="45" height="45" rx="3" fill="#2F80ED"/>
<path d="M15 30.5C14.45 30.5 13.9793 30.3043 13.588 29.913C13.196 29.521 13 29.05 13 28.5V16.5C13 15.95 13.196 15.4793 13.588 15.088C13.9793 14.696 14.45 14.5 15 14.5H31C31.55 14.5 32.021 14.696 32.413 15.088C32.8043 15.4793 33 15.95 33 16.5V20.5C33 20.7833 32.904 21.0207 32.712 21.212C32.5207 21.404 32.2833 21.5 32 21.5C31.7167 21.5 31.4793 21.404 31.288 21.212C31.096 21.0207 31 20.7833 31 20.5V16.5H15V28.5H22C22.2833 28.5 22.521 28.596 22.713 28.788C22.9043 28.9793 23 29.2167 23 29.5C23 29.7833 22.9043 30.0207 22.713 30.212C22.521 30.404 22.2833 30.5 22 30.5H15ZM22.05 26C21.7167 26.2167 21.375 26.2333 21.025 26.05C20.675 25.8667 20.5 25.575 20.5 25.175V19.825C20.5 19.425 20.675 19.1333 21.025 18.95C21.375 18.7667 21.7167 18.7833 22.05 19L26.2 21.65C26.35 21.75 26.4667 21.875 26.55 22.025C26.6333 22.175 26.675 22.3333 26.675 22.5C26.675 22.6667 26.6333 22.825 26.55 22.975C26.4667 23.125 26.35 23.25 26.2 23.35L22.05 26ZM29.25 33.5C29.1333 33.5 29.0333 33.4623 28.95 33.387C28.8667 33.3123 28.8083 33.2167 28.775 33.1L28.55 32C28.35 31.9167 28.1627 31.8293 27.988 31.738C27.8127 31.646 27.6333 31.5333 27.45 31.4L26.375 31.725C26.2583 31.7583 26.15 31.754 26.05 31.712C25.95 31.6707 25.8667 31.6 25.8 31.5L25.2 30.5C25.1333 30.4 25.1167 30.2917 25.15 30.175C25.1833 30.0583 25.2417 29.9583 25.325 29.875L26.15 29.15C26.1167 28.9167 26.1 28.7 26.1 28.5C26.1 28.3 26.1167 28.0833 26.15 27.85L25.325 27.125C25.2417 27.0417 25.1833 26.9417 25.15 26.825C25.1167 26.7083 25.1333 26.6 25.2 26.5L25.8 25.5C25.8667 25.4 25.95 25.329 26.05 25.287C26.15 25.2457 26.2583 25.2417 26.375 25.275L27.45 25.6C27.6333 25.4667 27.8127 25.354 27.988 25.262C28.1627 25.1707 28.35 25.0833 28.55 25L28.775 23.9C28.8083 23.7833 28.8667 23.6877 28.95 23.613C29.0333 23.5377 29.1333 23.5 29.25 23.5H30.45C30.5667 23.5 30.6667 23.5377 30.75 23.613C30.8333 23.6877 30.8917 23.7833 30.925 23.9L31.15 25C31.35 25.0833 31.5377 25.175 31.713 25.275C31.8877 25.375 32.0667 25.5 32.25 25.65L33.3 25.275C33.4167 25.225 33.5293 25.225 33.638 25.275C33.746 25.325 33.8333 25.4 33.9 25.5L34.5 26.55C34.5667 26.65 34.5917 26.7583 34.575 26.875C34.5583 26.9917 34.5 27.0917 34.4 27.175L33.55 27.9C33.5833 28.1 33.6 28.3083 33.6 28.525C33.6 28.7417 33.5833 28.95 33.55 29.15L34.375 29.875C34.4583 29.9583 34.5167 30.0583 34.55 30.175C34.5833 30.2917 34.5667 30.4 34.5 30.5L33.9 31.5C33.8333 31.6 33.75 31.6707 33.65 31.712C33.55 31.754 33.4417 31.7583 33.325 31.725L32.25 31.4C32.0667 31.5333 31.8877 31.646 31.713 31.738C31.5377 31.8293 31.35 31.9167 31.15 32L30.925 33.1C30.8917 33.2167 30.8333 33.3123 30.75 33.387C30.6667 33.4623 30.5667 33.5 30.45 33.5H29.25ZM29.85 30.5C30.4 30.5 30.871 30.3043 31.263 29.913C31.6543 29.521 31.85 29.05 31.85 28.5C31.85 27.95 31.6543 27.479 31.263 27.087C30.871 26.6957 30.4 26.5 29.85 26.5C29.3 26.5 28.8293 26.6957 28.438 27.087C28.046 27.479 27.85 27.95 27.85 28.5C27.85 29.05 28.046 29.521 28.438 29.913C28.8293 30.3043 29.3 30.5 29.85 30.5Z" fill="white"/>
</svg>
