<svg width="45" height="45" viewBox="0 0 45 45" fill="none" xmlns="http://www.w3.org/2000/svg">
<rect width="45" height="45" rx="3" fill="#2F80ED"/>
<g clip-path="url(#clip0_2747_30852)">
<path d="M33.1666 26.2535L31.8332 25.8335C31.7387 25.5072 31.609 25.192 31.4466 24.8935L32.1132 23.6535C32.1384 23.6062 32.1474 23.552 32.139 23.4991C32.1306 23.4461 32.1051 23.3974 32.0666 23.3602L31.0999 22.4069C31.0627 22.3683 31.014 22.3429 30.961 22.3344C30.9081 22.326 30.8539 22.3351 30.8066 22.3602L29.5732 23.0269C29.2715 22.8563 28.9518 22.7199 28.6199 22.6202L28.2132 21.2869C28.1962 21.2371 28.1637 21.1942 28.1206 21.1642C28.0774 21.1342 28.0258 21.1188 27.9732 21.1202H26.6399C26.5877 21.1207 26.5369 21.1377 26.495 21.1689C26.4531 21.2 26.4221 21.2437 26.4066 21.2935L25.9999 22.6269C25.6657 22.7261 25.3437 22.8626 25.0399 23.0335L23.8332 22.3669C23.7859 22.3417 23.7317 22.3327 23.6788 22.3411C23.6258 22.3495 23.5771 22.375 23.5399 22.4135L22.4999 23.3735C22.4613 23.4107 22.4359 23.4595 22.4275 23.5124C22.419 23.5653 22.4281 23.6195 22.4532 23.6669L23.1199 24.8802C22.9563 25.1828 22.8266 25.5025 22.7332 25.8335L21.3999 26.2402C21.35 26.2557 21.3064 26.2867 21.2752 26.3286C21.2441 26.3706 21.227 26.4213 21.2266 26.4735V27.8069C21.227 27.8591 21.2441 27.9098 21.2752 27.9518C21.3064 27.9937 21.35 28.0247 21.3999 28.0402L22.7332 28.4469C22.8405 28.7845 22.9859 29.1088 23.1666 29.4135L22.4999 30.6802C22.4748 30.7275 22.4657 30.7818 22.4741 30.8347C22.4825 30.8876 22.508 30.9364 22.5466 30.9735L23.5132 31.9402C23.5504 31.9788 23.5992 32.0042 23.6521 32.0126C23.705 32.0211 23.7592 32.012 23.8066 31.9869L25.0532 31.3202C25.3477 31.4795 25.6584 31.6069 25.9799 31.7002L26.3866 33.0335C26.4021 33.0834 26.4331 33.1271 26.475 33.1582C26.5169 33.1894 26.5677 33.2064 26.6199 33.2069H27.9532C28.0055 33.2064 28.0562 33.1894 28.0981 33.1582C28.1401 33.1271 28.171 33.0834 28.1866 33.0335L28.5932 31.7002C28.9126 31.6067 29.221 31.4793 29.5132 31.3202L30.7732 31.9869C30.8206 32.012 30.8748 32.0211 30.9277 32.0126C30.9806 32.0042 31.0294 31.9788 31.0666 31.9402L32.0332 30.9735C32.0718 30.9364 32.0972 30.8876 32.1057 30.8347C32.1141 30.7818 32.105 30.7275 32.0799 30.6802L31.4132 29.4269C31.5751 29.1328 31.7047 28.8221 31.7999 28.5002L33.1332 28.0935C33.1831 28.078 33.2268 28.047 33.2579 28.0051C33.2891 27.9632 33.3061 27.9124 33.3066 27.8602V26.5002C33.3114 26.4497 33.3006 26.3989 33.2756 26.3547C33.2505 26.3106 33.2124 26.2753 33.1666 26.2535ZM27.2799 29.4002C26.8423 29.3963 26.4156 29.263 26.0534 29.0173C25.6913 28.7716 25.4098 28.4243 25.2445 28.0191C25.0791 27.6138 25.0372 27.1688 25.1241 26.7399C25.2109 26.3109 25.4226 25.9172 25.7325 25.6082C26.0424 25.2992 26.4368 25.0887 26.866 25.0031C27.2952 24.9176 27.7401 24.9608 28.1448 25.1274C28.5495 25.2939 28.896 25.5764 29.1406 25.9393C29.3853 26.3021 29.5173 26.7292 29.5199 27.1669C29.5208 27.4595 29.4638 27.7495 29.3522 28.02C29.2406 28.2906 29.0766 28.5364 28.8697 28.7433C28.6627 28.9503 28.4169 29.1142 28.1464 29.2258C27.8758 29.3374 27.5859 29.3944 27.2932 29.3935L27.2799 29.4002Z" fill="white"/>
<path d="M17.7317 28.7932C18.0103 28.7334 18.2666 28.5968 18.4716 28.3989C18.6767 28.2009 18.8222 27.9496 18.8917 27.6732C19.3182 27.5611 19.7387 27.4276 20.1517 27.2732V26.4666C20.1545 26.3421 20.1747 26.2187 20.2117 26.0999C19.7415 26.305 19.2582 26.4787 18.7651 26.6199C18.6212 26.3351 18.3914 26.1029 18.1081 25.956C17.8249 25.8091 17.5027 25.7551 17.187 25.8015C16.8714 25.848 16.5784 25.9926 16.3495 26.2148C16.1206 26.4371 15.9674 26.7257 15.9117 27.0399H15.6117C14.4454 25.6859 13.769 23.9786 13.6917 22.1932C14.5876 20.9375 15.7199 19.8687 17.0251 19.0466C17.2192 19.2452 17.4652 19.3855 17.735 19.4515C18.0049 19.5174 18.2878 19.5065 18.5517 19.4199C19.3636 20.7351 20.4151 21.8861 21.6517 22.8132C21.6954 22.7371 21.7468 22.6656 21.8051 22.5999L22.3984 22.0199C21.1948 21.1419 20.1773 20.0339 19.4051 18.7599C19.5562 18.5203 19.637 18.2431 19.6384 17.9599V17.8132C22.0821 16.9976 24.7257 17.0046 27.1651 17.8332C26.9857 18.6017 26.7289 19.35 26.3984 20.0666C26.4663 20.0499 26.5354 20.0387 26.6051 20.0332H27.5717C27.8163 19.449 28.0169 18.8473 28.1717 18.2332C28.4584 18.3599 28.7317 18.5066 29.0117 18.6599C29.438 19.6339 29.6647 20.6835 29.6784 21.7466L30.3451 21.4066C30.5343 21.307 30.7446 21.2544 30.9584 21.2532H31.0117C30.8986 19.4458 30.2621 17.7103 29.1798 16.2583C28.0974 14.8063 26.6161 13.7006 24.9163 13.0758C23.2165 12.4511 21.3716 12.3344 19.6066 12.7399C17.8416 13.1455 16.2327 14.0557 14.9761 15.3598C13.7194 16.6638 12.8692 18.3052 12.5292 20.084C12.1892 21.8628 12.3741 23.7021 13.0612 25.3776C13.7484 27.0532 14.9081 28.4926 16.3991 29.5205C17.8902 30.5484 19.648 31.1203 21.4584 31.1666C21.3568 30.8441 21.3855 30.4947 21.5384 30.1932L21.7251 29.8399H21.6784C20.2941 29.841 18.9335 29.4802 17.7317 28.7932ZM21.6717 13.8332C22.7431 13.8348 23.8033 14.0517 24.7893 14.4708C25.7753 14.8899 26.6671 15.5029 27.4117 16.2732C27.4117 16.4399 27.4117 16.6132 27.3584 16.7799C24.6807 15.8974 21.7866 15.9232 19.1251 16.8532C18.8988 16.6596 18.6206 16.5368 18.3251 16.4999C18.1466 15.9489 18.0106 15.385 17.9184 14.8132C19.0693 14.1815 20.3589 13.8448 21.6717 13.8332ZM16.9384 15.4066C17.0246 15.8387 17.1336 16.266 17.2651 16.6866C17.047 16.8231 16.8671 17.0128 16.7424 17.2378C16.6176 17.4629 16.552 17.7159 16.5517 17.9732C16.5517 17.9732 16.5517 18.0399 16.5517 18.0732C15.5444 18.707 14.6292 19.4765 13.8317 20.3599C14.2052 18.3759 15.3149 16.6065 16.9384 15.4066Z" fill="white"/>
</g>
<defs>
<clipPath id="clip0_2747_30852">
<rect width="24" height="24" fill="white" transform="translate(10.5 10.5)"/>
</clipPath>
</defs>
</svg>
