<svg width="45" height="45" viewBox="0 0 45 45" fill="none" xmlns="http://www.w3.org/2000/svg">
<rect width="45" height="45" rx="3" fill="#2F80ED"/>
<g clip-path="url(#clip0_2747_30871)">
<path d="M22.5 22.2188V33.457L21.75 33.832L12 28.9688V16.7812L21.75 11.9062L31.5 16.7812V25.5H30V18.4688L22.5 22.2188ZM21.75 13.5938L18.9258 15L26.2031 18.6797L29.0742 17.25L21.75 13.5938ZM21 31.7812V22.2188L13.5 18.4688V28.0312L21 31.7812ZM14.4258 17.25L21.75 20.9062L24.5391 19.5234L17.25 15.8438L14.4258 17.25ZM27 31.5V30H34.5V31.5H27ZM27 27H34.5V28.5H27V27ZM24 34.5V33H25.5V34.5H24ZM24 28.5V27H25.5V28.5H24ZM24 31.5V30H25.5V31.5H24ZM22.5 31.7812H22.5117H22.5ZM27 34.5V33H34.5V34.5H27Z" fill="white"/>
</g>
<defs>
<clipPath id="clip0_2747_30871">
<rect width="24" height="24" fill="white" transform="translate(10.5 10.5)"/>
</clipPath>
</defs>
</svg>
