<svg width="4" height="11" viewBox="0 0 4 11" fill="none" xmlns="http://www.w3.org/2000/svg">
<path d="M3.5462 3.9115L0.969946 4.23438L0.877696 4.66188L1.38395 4.75525C1.7147 4.834 1.77995 4.95325 1.70795 5.28288L0.877696 9.18437C0.659446 10.1935 0.995821 10.6683 1.7867 10.6683C2.39982 10.6683 3.11195 10.3848 3.43482 9.9955L3.53382 9.5275C3.30882 9.7255 2.98032 9.80425 2.76207 9.80425C2.4527 9.80425 2.3402 9.58712 2.42007 9.20463L3.5462 3.9115ZM3.62495 1.5625C3.62495 1.86087 3.50642 2.14702 3.29544 2.35799C3.08446 2.56897 2.79831 2.6875 2.49995 2.6875C2.20158 2.6875 1.91543 2.56897 1.70445 2.35799C1.49347 2.14702 1.37495 1.86087 1.37495 1.5625C1.37495 1.26413 1.49347 0.977983 1.70445 0.767005C1.91543 0.556026 2.20158 0.4375 2.49995 0.4375C2.79831 0.4375 3.08446 0.556026 3.29544 0.767005C3.50642 0.977983 3.62495 1.26413 3.62495 1.5625Z" fill="white"/>
</svg>
