<svg width="16" height="16" viewBox="0 0 16 16" fill="none" xmlns="http://www.w3.org/2000/svg">
<path fill-rule="evenodd" clip-rule="evenodd" d="M7.99998 10C6.89731 10 5.99998 9.10271 5.99998 8.00004C5.99998 6.89737 6.89731 6.00004 7.99998 6.00004C9.10265 6.00004 9.99998 6.89737 9.99998 8.00004C9.99998 9.10271 9.10265 10 7.99998 10ZM7.99998 4.66671C6.16198 4.66671 4.66665 6.16204 4.66665 8.00004C4.66665 9.83804 6.16198 11.3334 7.99998 11.3334C9.83798 11.3334 11.3333 9.83804 11.3333 8.00004C11.3333 6.16204 9.83798 4.66671 7.99998 4.66671ZM7.99998 13.3334C5.05931 13.3334 2.66665 10.9407 2.66665 8.00004C2.66665 5.05937 5.05931 2.66671 7.99998 2.66671C10.9406 2.66671 13.3333 5.05937 13.3333 8.00004C13.3333 10.9407 10.9406 13.3334 7.99998 13.3334ZM7.99998 1.33337C4.32398 1.33337 1.33331 4.32404 1.33331 8.00004C1.33331 11.676 4.32398 14.6667 7.99998 14.6667C11.676 14.6667 14.6666 11.676 14.6666 8.00004C14.6666 4.32404 11.676 1.33337 7.99998 1.33337Z" fill="#222222"/>
</svg>
