<svg width="18" height="18" viewBox="0 0 18 18" fill="none" xmlns="http://www.w3.org/2000/svg">
<g clip-path="url(#clip0_834_2029)">
<path d="M5 15C4.2 15 3.4 14.3 3 14C1 12.6 0.4 12.1 0 11.8V16C0 16.5522 0.447812 17 1 17H9C9.55219 17 10 16.5522 10 16V11.8C9.6 12.1 9 12.6 7 14C6.6 14.3 5.8 15 5 15ZM9 9H1C0.447812 9 0 9.44781 0 10V10.5C0.8 11.1 0.7 11.1 3.6 13.2C3.9 13.4 4.5 14 5 14C5.5 14 6.1 13.4 6.4 13.3C9.3 11.2 9.2 11.2 10 10.6V10C10 9.44781 9.55219 9 9 9ZM17 6H7C6.44781 6 6 6.44781 6 7V8H9C10.0378 8 10.8934 8.79437 10.9909 9.80687L11 9.8V14H17C17.5522 14 18 13.5522 18 13V7C18 6.44781 17.5522 6 17 6ZM16 10H14V8H16V10ZM5 7C5 5.89719 5.89719 5 7 5H14V2C14 1.44781 13.5522 1 13 1H3C2.44781 1 2 1.44781 2 2V8H5V7Z" fill="#222222"/>
</g>
<defs>
<clipPath id="clip0_834_2029">
<rect width="18" height="18" fill="white"/>
</clipPath>
</defs>
</svg>
