<svg width="74" height="76" viewBox="0 0 74 76" fill="none" xmlns="http://www.w3.org/2000/svg">
<path d="M73.125 56.75L54.375 75.5L41.25 62.375L46.875 56.75L54.375 64.25L67.5 51.125L73.125 56.75ZM7.5 0.5C5.51088 0.5 3.60322 1.29018 2.1967 2.6967C0.790176 4.10322 0 6.01088 0 8V68C0 72.1625 3.3375 75.5 7.5 75.5H36.7875C35.4375 73.175 34.5 70.625 34.05 68H7.5V8H33.75V26.75H52.5V42.05C53.7375 41.8625 55.0125 41.75 56.25 41.75C57.525 41.75 58.7625 41.8625 60 42.05V23L37.5 0.5M15 38V45.5H45V38M15 53V60.5H33.75V53H15Z" fill="#CF840F"/>
</svg>
