<svg width="68" height="80" viewBox="0 0 68 80" fill="none" xmlns="http://www.w3.org/2000/svg">
<path d="M15 38H45V45.5H15V38ZM22.5 68H7.5V8H33.75V26.75H52.5V38.375L60 30.875V23L37.5 0.5H7.5C5.51088 0.5 3.60322 1.29018 2.1967 2.6967C0.790176 4.10322 0 6.01088 0 8V68C0 69.9891 0.790176 71.8968 2.1967 73.3033C3.60322 74.7098 5.51088 75.5 7.5 75.5H22.5V68ZM15 60.5H30.375L33.75 57.125V53H15V60.5ZM60.75 41.75C61.125 41.75 61.875 42.125 62.25 42.5L67.125 47.375C67.875 48.125 67.875 49.625 67.125 50.375L63.375 54.125L55.5 46.25L59.25 42.5C59.625 42.125 60 41.75 60.75 41.75ZM60.75 56.375L37.875 79.25H30V71.375L52.875 48.5L60.75 56.375Z" fill="#008D4B"/>
</svg>
