<svg width="18" height="18" viewBox="0 0 18 18" fill="none" xmlns="http://www.w3.org/2000/svg">
<path d="M16 3.3125V11.1875C16 11.5356 15.8617 11.8694 15.6156 12.1156C15.3694 12.3617 15.0356 12.5 14.6875 12.5H13.375V6.8125C13.375 6.23234 13.1445 5.67594 12.7343 5.2657C12.3241 4.85547 11.7677 4.625 11.1875 4.625H5.5V3.3125C5.5 2.9644 5.63828 2.63056 5.88442 2.38442C6.13056 2.13828 6.4644 2 6.8125 2H14.6875C15.0356 2 15.3694 2.13828 15.6156 2.38442C15.8617 2.63056 16 2.9644 16 3.3125ZM12.5 6.8125V14.6875C12.5 15.0356 12.3617 15.3694 12.1156 15.6156C11.8694 15.8617 11.5356 16 11.1875 16H3.3125C2.9644 16 2.63056 15.8617 2.38442 15.6156C2.13828 15.3694 2 15.0356 2 14.6875V6.8125C2 6.4644 2.13828 6.13056 2.38442 5.88442C2.63056 5.63828 2.9644 5.5 3.3125 5.5H11.1875C11.5356 5.5 11.8694 5.63828 12.1156 5.88442C12.3617 6.13056 12.5 6.4644 12.5 6.8125ZM10.6406 7.57812C10.6404 7.49117 10.6058 7.40785 10.5443 7.34636C10.4828 7.28488 10.3995 7.25023 10.3125 7.25H4.07812C3.99117 7.25023 3.90785 7.28488 3.84636 7.34636C3.78488 7.40785 3.75023 7.49117 3.75 7.57812V9H10.6406V7.57812Z" fill="#222222"/>
</svg>
