<svg width="41" height="40" viewBox="0 0 41 40" fill="none" xmlns="http://www.w3.org/2000/svg">
<rect x="0.5" width="40" height="40" rx="3" fill="#1D3E8B"/>
<g clip-path="url(#clip0_3808_46933)">
<path d="M16.525 26.25L21.75 29.1V32.5H13C11.6125 32.5 10.5 31.3875 10.5 30V10C10.5 9.33696 10.7634 8.70107 11.2322 8.23223C11.7011 7.76339 12.337 7.5 13 7.5H14.25V16.25L17.375 14.375L20.5 16.25V7.5H28C28.663 7.5 29.2989 7.76339 29.7678 8.23223C30.2366 8.70107 30.5 9.33696 30.5 10V20.675L28.625 19.65L16.525 26.25ZM35.5 26.25L28.625 22.5L21.75 26.25L28.625 30L35.5 26.25ZM24.25 28.8625V31.3625L28.625 33.75L33 31.3625V28.8625L28.625 31.25L24.25 28.8625Z" fill="white"/>
</g>
<defs>
<clipPath id="clip0_3808_46933">
<rect width="30" height="30" fill="white" transform="translate(5.5 5)"/>
</clipPath>
</defs>
</svg>
