<svg width="27" height="24" viewBox="0 0 27 24" fill="none" xmlns="http://www.w3.org/2000/svg">
<path d="M14.7208 4.8184C14.753 4.75407 14.799 4.696 14.8564 4.64751C14.9138 4.59901 14.9814 4.56104 15.0553 4.53576C15.1292 4.51048 15.208 4.49839 15.2871 4.50017C15.3663 4.50196 15.4443 4.51759 15.5166 4.54617C15.6565 4.6019 17.9016 5.55257 19.4076 7.79366C20.1684 8.92974 20.4891 10.0926 20.6206 10.9801C20.6956 11.4891 20.7219 12.0029 20.699 12.5159V12.5438V12.5395C20.699 12.6816 20.6354 12.8179 20.5224 12.9184C20.4093 13.0189 20.256 13.0754 20.0961 13.0754C19.9362 13.0754 19.7828 13.0189 19.6698 12.9184C19.5567 12.8179 19.4932 12.6816 19.4932 12.5395V12.4859C19.5113 12.1183 19.6017 10.1751 18.3719 8.34348C17.6323 7.25257 16.601 6.34098 15.3695 5.68976C15.1633 5.58258 15.0367 5.52899 15.0271 5.52577C14.9547 5.49721 14.8894 5.45625 14.8348 5.40524C14.7803 5.35423 14.7376 5.29417 14.7091 5.22848C14.6807 5.16279 14.6671 5.09277 14.6691 5.0224C14.6711 4.95204 14.6887 4.88272 14.7208 4.8184V4.8184ZM14.7835 7.4046C14.8773 7.28951 15.0186 7.21221 15.1764 7.1897C15.3342 7.16719 15.4956 7.20131 15.6251 7.28456C15.6215 7.28242 15.9097 7.44319 16.2521 7.72399C16.5982 8.0048 17.0238 8.42386 17.3638 8.98547C17.7342 9.60135 17.9533 10.2801 18.0065 10.9768C18.0113 11.0411 18.0125 11.0915 18.0137 11.1312V11.1987C18.0137 11.3408 17.9502 11.4771 17.8372 11.5776C17.7241 11.6781 17.5708 11.7346 17.4109 11.7346C17.251 11.7346 17.0976 11.6781 16.9846 11.5776C16.8715 11.4771 16.808 11.3408 16.808 11.1987V11.1955C16.7948 10.59 16.6159 9.99655 16.2866 9.46638C15.9574 8.93621 15.4879 8.48532 14.9186 8.1527C14.7891 8.06939 14.7021 7.94379 14.6768 7.8035C14.6515 7.66322 14.6899 7.51974 14.7835 7.4046V7.4046ZM5.67047 14.9038C5.05533 13.9206 4.89964 12.7619 5.23698 11.6775C5.57432 10.5932 6.37765 9.6702 7.4737 9.10761C8.56974 8.54502 9.87065 8.38795 11.0958 8.67026C12.321 8.95258 13.3722 9.65167 14.0227 10.6167L15.0114 12.1386L17.3096 13.6252C17.3907 13.6777 17.4558 13.7474 17.499 13.828C17.5422 13.9086 17.562 13.9974 17.5567 14.0865C17.5515 14.1756 17.5212 14.2622 17.4688 14.3383C17.4164 14.4144 17.3434 14.4776 17.2565 14.5223L14.206 16.0871L14.2108 16.0903L10.9095 17.7837V17.7805L7.85891 19.3453C7.77193 19.3901 7.67372 19.4149 7.57322 19.4174C7.47272 19.4198 7.37312 19.3999 7.28348 19.3594C7.19385 19.319 7.11702 19.2592 7.06 19.1856C7.00298 19.112 6.96758 19.0269 6.95701 18.938L6.65919 16.4268L5.67047 14.9038V14.9038ZM14.9704 16.9381L11.3556 18.7922C11.6703 19.1438 12.1165 19.3833 12.6131 19.4671C13.1096 19.5509 13.6235 19.4735 14.0613 19.2489C14.4991 19.0244 14.8316 18.6676 14.9985 18.2435C15.1653 17.8194 15.1554 17.3562 14.9704 16.9381V16.9381Z" fill="#EB5757"/>
</svg>
