<svg width="18" height="18" viewBox="0 0 18 18" fill="none" xmlns="http://www.w3.org/2000/svg">
<path d="M3.75 15C3.3375 15 2.98425 14.8533 2.69025 14.5598C2.39675 14.2658 2.25 13.9125 2.25 13.5V3C2.25 2.5875 2.39675 2.23425 2.69025 1.94025C2.98425 1.64675 3.3375 1.5 3.75 1.5H14.25C14.6625 1.5 15.0158 1.64675 15.3098 1.94025C15.6033 2.23425 15.75 2.5875 15.75 3V7.25625C15.4 7.08125 15.0345 6.953 14.6535 6.8715C14.272 6.7905 13.8875 6.75 13.5 6.75C13.1375 6.75 12.7938 6.78425 12.4688 6.85275C12.1437 6.92175 11.825 7.01875 11.5125 7.14375C11.55 7.01875 11.5783 6.89375 11.5973 6.76875C11.6158 6.64375 11.625 6.5125 11.625 6.375C11.625 5.65 11.3688 5.03125 10.8563 4.51875C10.3438 4.00625 9.725 3.75 9 3.75C8.275 3.75 7.65625 4.00625 7.14375 4.51875C6.63125 5.03125 6.375 5.65 6.375 6.375C6.375 7.1 6.63125 7.71875 7.14375 8.23125C7.65625 8.74375 8.275 9 9 9H9.1875C9.025 9.225 8.8845 9.4655 8.766 9.7215C8.647 9.978 8.54375 10.2437 8.45625 10.5187C7.53125 10.5812 6.672 10.8 5.8785 11.175C5.0845 11.55 4.375 12.0375 3.75 12.6375V13.5H8.475C8.5625 13.775 8.6625 14.0375 8.775 14.2875C8.8875 14.5375 9.025 14.775 9.1875 15H3.75ZM12.75 15.75L12.525 14.625C12.375 14.5625 12.2345 14.497 12.1035 14.4285C11.972 14.3595 11.8375 14.275 11.7 14.175L10.6125 14.5125L9.8625 13.2375L10.725 12.4875C10.7 12.3125 10.6875 12.15 10.6875 12C10.6875 11.85 10.7 11.6875 10.725 11.5125L9.8625 10.7625L10.6125 9.4875L11.7 9.825C11.8375 9.725 11.972 9.6405 12.1035 9.5715C12.2345 9.503 12.375 9.4375 12.525 9.375L12.75 8.25H14.25L14.475 9.375C14.625 9.4375 14.7658 9.50625 14.8973 9.58125C15.0283 9.65625 15.1625 9.75 15.3 9.8625L16.3875 9.4875L17.1375 10.8L16.275 11.55C16.3 11.7 16.3125 11.8562 16.3125 12.0187C16.3125 12.1812 16.3 12.3375 16.275 12.4875L17.1375 13.2375L16.3875 14.5125L15.3 14.175C15.1625 14.275 15.0283 14.3595 14.8973 14.4285C14.7658 14.497 14.625 14.5625 14.475 14.625L14.25 15.75H12.75ZM13.5 13.5C13.9125 13.5 14.2658 13.3533 14.5598 13.0598C14.8533 12.7658 15 12.4125 15 12C15 11.5875 14.8533 11.2342 14.5598 10.9402C14.2658 10.6467 13.9125 10.5 13.5 10.5C13.0875 10.5 12.7342 10.6467 12.4402 10.9402C12.1467 11.2342 12 11.5875 12 12C12 12.4125 12.1467 12.7658 12.4402 13.0598C12.7342 13.3533 13.0875 13.5 13.5 13.5Z" fill="black"/>
</svg>
