<svg width="14" height="14" viewBox="0 0 14 14" fill="none" xmlns="http://www.w3.org/2000/svg">
<path d="M14 1.3125V9.1875C14 9.5356 13.8617 9.86944 13.6156 10.1156C13.3694 10.3617 13.0356 10.5 12.6875 10.5H11.375V4.8125C11.375 4.23234 11.1445 3.67594 10.7343 3.2657C10.3241 2.85547 9.76766 2.625 9.1875 2.625H3.5V1.3125C3.5 0.964403 3.63828 0.630564 3.88442 0.384422C4.13056 0.138281 4.4644 0 4.8125 0L12.6875 0C13.0356 0 13.3694 0.138281 13.6156 0.384422C13.8617 0.630564 14 0.964403 14 1.3125ZM10.5 4.8125V12.6875C10.5 13.0356 10.3617 13.3694 10.1156 13.6156C9.86944 13.8617 9.5356 14 9.1875 14H1.3125C0.964403 14 0.630564 13.8617 0.384422 13.6156C0.138281 13.3694 0 13.0356 0 12.6875L0 4.8125C0 4.4644 0.138281 4.13056 0.384422 3.88442C0.630564 3.63828 0.964403 3.5 1.3125 3.5H9.1875C9.5356 3.5 9.86944 3.63828 10.1156 3.88442C10.3617 4.13056 10.5 4.4644 10.5 4.8125ZM8.64062 5.57812C8.64039 5.49117 8.60575 5.40785 8.54426 5.34636C8.48278 5.28488 8.39945 5.25023 8.3125 5.25H2.07812C1.99117 5.25023 1.90785 5.28488 1.84636 5.34636C1.78488 5.40785 1.75023 5.49117 1.75 5.57812V7H8.64062V5.57812Z" fill="#222222"/>
</svg>
